<?xml version="1.0" encoding="UTF-8"?>
<svg version="1.1" xmlns="http://www.w3.org/2000/svg" width="2000" height="2569">
<path d="M0 0 C1.22812408 0.00182281 2.45624817 0.00364563 3.72158813 0.00552368 C22.49670038 0.05235354 40.9047209 0.57121407 59.5 3.3125 C60.69898926 3.48410645 61.89797852 3.65571289 63.13330078 3.83251953 C119.25446244 12.0880184 171.84037538 32.18888098 213.8984375 70.9296875 C216.15155544 72.99335409 218.43488353 75.00667578 220.75 77 C226.40657085 81.93077867 231.56116871 87.23570082 236.44921875 92.92578125 C237.97920052 94.70638861 239.52629336 96.47232018 241.08203125 98.23046875 C261.83714639 121.81534148 279.16455275 148.28803567 294.83984375 175.45019531 C297.89579911 180.71902188 301.01483787 185.95055543 304.125 191.1875 C305.13775803 192.89523269 306.15051352 194.6029669 307.16304016 196.31083679 C307.85817447 197.483343 308.5533965 198.6557972 309.248703 199.82820129 C311.48851266 203.60510692 313.72595582 207.38340549 315.96218872 211.16242981 C324.28875302 225.23127809 332.66157571 239.26760897 341.17648315 253.22335815 C346.91366502 262.63222968 352.51318909 272.11572714 358.06304932 281.63607788 C363.28285273 290.58609009 368.59983604 299.47022785 374 308.3125 C380.13380175 318.35603659 386.13599795 328.46814354 392.0625 338.63525391 C397.28249662 347.58553304 402.59966525 356.46994821 408 365.3125 C413.76707995 374.75556335 419.42769052 384.2532175 425 393.8125 C430.65695113 403.51644481 436.40182888 413.16003939 442.25 422.75 C448.81548954 433.51812738 455.27596686 444.34283782 461.67285156 455.21191406 C465.35477615 461.45996888 469.05056711 467.69979901 472.75 473.9375 C473.15488647 474.62031036 473.55977295 475.30312073 473.97692871 476.00662231 C479.97670631 486.1195159 486.05118355 496.18423472 492.17565918 506.22198486 C497.91311313 515.63131595 503.51292015 525.1152658 509.06304932 534.63607788 C514.28285273 543.58609009 519.59983604 552.47022785 525 561.3125 C531.13380175 571.35603659 537.13599795 581.46814354 543.0625 591.63525391 C548.28249662 600.58553304 553.59966525 609.46994821 559 618.3125 C564.76708116 627.75556534 570.4275982 637.25327021 576 646.8125 C581.59612086 656.41132019 587.27652625 665.95187448 593.0625 675.4375 C600.60465773 687.80472741 608.01218642 700.24834949 615.37841797 712.72119141 C619.22544067 719.23435191 623.07919707 725.74351593 626.9375 732.25 C627.33706909 732.92394806 627.73663818 733.59789612 628.14831543 734.29226685 C634.09093406 744.31058188 640.10962113 754.27990248 646.17648315 764.22335815 C651.91366502 773.63222968 657.51318909 783.11572714 663.06304932 792.63607788 C668.28285273 801.58609009 673.59983604 810.47022785 679 819.3125 C685.13380175 829.35603659 691.13599795 839.46814354 697.0625 849.63525391 C702.28249662 858.58553304 707.59966525 867.46994821 713 876.3125 C718.76707995 885.75556335 724.42769052 895.2532175 730 904.8125 C735.65695113 914.51644481 741.40182888 924.16003939 747.25 933.75 C753.81548954 944.51812738 760.27596686 955.34283782 766.67285156 966.21191406 C770.35477615 972.45996888 774.05056711 978.69979901 777.75 984.9375 C778.15488647 985.62031036 778.55977295 986.30312073 778.97692871 987.00662231 C784.97670631 997.1195159 791.05118355 1007.18423472 797.17565918 1017.22198486 C802.91311313 1026.63131595 808.51292015 1036.1152658 814.06304932 1045.63607788 C819.28285273 1054.58609009 824.59983604 1063.47022785 830 1072.3125 C835.76707995 1081.75556335 841.42769052 1091.2532175 847 1100.8125 C852.65695113 1110.51644481 858.40182888 1120.16003939 864.25 1129.75 C870.81548954 1140.51812738 877.27596686 1151.34283782 883.67285156 1162.21191406 C887.35477615 1168.45996888 891.05056711 1174.69979901 894.75 1180.9375 C895.15488647 1181.62031036 895.55977295 1182.30312073 895.97692871 1183.00662231 C901.97670631 1193.1195159 908.05118355 1203.18423472 914.17565918 1213.22198486 C919.91311313 1222.63131595 925.51292015 1232.1152658 931.06304932 1241.63607788 C936.28285273 1250.58609009 941.59983604 1259.47022785 947 1268.3125 C953.13380175 1278.35603659 959.13599795 1288.46814354 965.0625 1298.63525391 C970.28249662 1307.58553304 975.59966525 1316.46994821 981 1325.3125 C986.76707995 1334.75556335 992.42769052 1344.2532175 998 1353.8125 C1003.65695113 1363.51644481 1009.40182888 1373.16003939 1015.25 1382.75 C1021.81548954 1393.51812738 1028.27596686 1404.34283782 1034.67285156 1415.21191406 C1038.35477615 1421.45996888 1042.05056711 1427.69979901 1045.75 1433.9375 C1046.15488647 1434.62031036 1046.55977295 1435.30312073 1046.97692871 1436.00662231 C1052.97609351 1446.118483 1059.05052432 1456.1817999 1065.17364502 1466.21896362 C1071.31930523 1476.2997012 1077.31201091 1486.46475167 1083.26171875 1496.66210938 C1087.82394231 1504.47758404 1092.44974349 1512.25138234 1097.125 1520 C1104.7589966 1532.67072563 1112.15376996 1545.47327656 1119.5 1558.3125 C1120.17381733 1559.48958951 1120.84764562 1560.66667275 1121.52148438 1561.84375 C1125.57310762 1568.92270294 1129.61781828 1576.00558546 1133.66015625 1583.08984375 C1135.34450046 1586.04012819 1137.03097326 1588.98917823 1138.71875 1591.9375 C1148.99779957 1609.89539822 1159.17098536 1627.91188475 1169.2668457 1645.97338867 C1172.63948886 1652.00354928 1176.03304082 1658.02116593 1179.44604492 1664.02856445 C1185.02520636 1673.85297816 1190.47570937 1683.7384274 1195.83618164 1693.68383789 C1199.01681834 1699.58344479 1202.23058517 1705.46165273 1205.5 1711.3125 C1209.91558889 1719.22019713 1214.23627881 1727.17759785 1218.54077148 1735.14624023 C1221.20608454 1740.07970541 1223.87712993 1745.00960166 1226.57421875 1749.92578125 C1232.17386579 1760.13379386 1237.6549413 1770.39135035 1243.01123047 1780.72924805 C1246.31910903 1787.09710168 1249.72189756 1793.4043346 1253.1875 1799.6875 C1258.69674651 1809.68958122 1263.91421232 1819.83195776 1269.11743164 1829.99511719 C1273.36586879 1838.28919768 1277.66044805 1846.54094577 1282.1875 1854.6875 C1289.25989807 1867.44094223 1295.79873756 1880.47536535 1302.40893555 1893.47216797 C1307.60616778 1903.68669946 1312.86812247 1913.8621273 1318.22216797 1923.99536133 C1321.35017069 1929.9161482 1324.42817561 1935.86237968 1327.5 1941.8125 C1328.13605663 1943.04362552 1328.77212475 1944.27474509 1329.40820312 1945.50585938 C1331.44048318 1949.44053975 1333.47054791 1953.3763604 1335.5 1957.3125 C1335.83966797 1957.97121094 1336.17933594 1958.62992188 1336.52929688 1959.30859375 C1340.98231364 1967.94525764 1345.42679894 1976.58627046 1349.86341858 1985.23136902 C1351.85612521 1989.11373679 1353.85090657 1992.99500528 1355.85107422 1996.87353516 C1369.87708468 2024.07394208 1383.60794037 2051.42074162 1397.30031204 2078.79018784 C1398.73493174 2081.65738493 1400.17023555 2084.52423866 1401.60568237 2087.39102173 C1419.74458713 2123.62350031 1419.74458713 2123.62350031 1428.07080078 2141.20458984 C1430.72585648 2146.80771873 1433.44680121 2152.37788855 1436.17578125 2157.9453125 C1436.87533432 2159.37295425 1436.87533432 2159.37295425 1437.58901978 2160.82943726 C1439.47531316 2164.67670883 1441.36343777 2168.52307923 1443.25219727 2172.36914062 C1448.45416694 2182.96571279 1453.6167268 2193.56439115 1458.5 2204.3125 C1463.12 2203.3225 1467.74 2202.3325 1472.5 2201.3125 C1471.95998795 2189.93405582 1471.13867586 2178.62346994 1469.9709816 2167.29253578 C1469.70319302 2164.69152479 1469.44080003 2162.09001332 1469.17965698 2159.48832703 C1468.79954454 2155.70222397 1468.41804091 2151.91626541 1468.03555298 2148.13040161 C1458.53143587 2053.86626762 1451.20454134 1959.39297241 1435.56822014 1603.09717417 C1435.50619937 1600.03760959 1435.44344731 1596.9780607 1435.38053894 1593.91851425 C1434.47410714 1549.75830268 1433.72357205 1505.59600804 1433.04601574 1461.43174982 C1432.99926528 1458.38969154 1432.95226419 1455.34763723 1432.90518951 1452.30558395 C1431.9493516 1390.51504705 1431.11018711 1328.72367042 1430.43588257 1266.92940521 C1430.38828415 1262.57321577 1430.33979535 1258.21703712 1430.29062843 1253.86086512 C1429.97827845 1226.01179872 1429.72885747 1198.16236958 1429.5 1170.3125 C1429.48969744 1169.0632605 1429.47939489 1167.81402099 1429.46878013 1166.52692574 C1428.66001425 1068.10388393 1428.38476443 969.68398069 1428.39646182 802.83457242 C1428.40160971 784.24469154 1428.40419417 765.65481143 1428.40512276 747.06492996 C1428.40515717 746.39501797 1428.40519158 745.72510597 1428.40522704 745.03489361 C1428.40554045 738.9119189 1428.40582811 732.7889442 1428.40608501 726.66596949 C1428.40672256 711.47792345 1428.40768072 696.28987744 1428.40886021 681.10183144 C1428.40891352 680.41192535 1428.40896684 679.72201925 1428.40902177 679.01120692 C1428.41161251 645.84959318 1428.41790665 612.68798032 1428.42456055 579.52636719 C1428.42685324 568.08953858 1428.42912907 556.65270997 1428.43133545 545.21588135 C1428.4314724 544.50608891 1428.43160935 543.79629646 1428.43175045 543.06499516 C1428.4381529 509.76146179 1428.44183867 476.45792826 1428.44487024 443.15439443 C1428.4450683 440.97920526 1428.44526749 438.80401609 1428.44546692 436.62882691 C1428.44678727 422.20781039 1428.44806182 407.78679387 1428.44930578 393.36577734 C1428.45177913 364.6973984 1428.45452067 336.02901949 1428.45744783 307.36064059 C1428.45758707 305.99688829 1428.45772613 304.63313599 1428.45786499 303.26938368 C1428.46703017 213.28375506 1428.48290694 123.29812742 1428.5 33.3125 C1430.06976898 32.67414326 1431.64060943 32.038421 1433.21188354 31.40377808 C1434.08652693 31.04947157 1434.96117031 30.69516506 1435.86231804 30.33012199 C1439.78428522 28.81702067 1443.77681634 27.64697018 1447.8203125 26.5078125 C1449.09968689 26.14090553 1449.09968689 26.14090553 1450.40490723 25.7665863 C1453.14314613 24.98375036 1455.88372057 24.20961676 1458.625 23.4375 C1459.56639832 23.17137909 1460.50779663 22.90525818 1461.47772217 22.631073 C1467.02464855 21.06438612 1472.57520106 19.51123987 1478.12939453 17.97052002 C1480.18203996 17.40075765 1482.23369107 16.82741539 1484.28515625 16.25341797 C1496.23769276 12.94080547 1508.26049006 10.52134175 1520.5 8.5625 C1521.73314941 8.36342041 1522.96629883 8.16434082 1524.23681641 7.95922852 C1544.63943824 4.87646569 1565.07336711 3.92907024 1585.6875 4 C1586.79696991 4.00182281 1587.90643982 4.00364563 1589.04953003 4.00552368 C1606.38264605 4.05329389 1623.34835004 4.62429587 1640.5 7.3125 C1641.57781738 7.47347168 1642.65563477 7.63444336 1643.76611328 7.80029297 C1681.23525958 13.57117347 1719.90469461 27.61729622 1743.36328125 59.01953125 C1768.10690805 93.97707035 1768.81306865 135.56691498 1768.77538699 176.69526073 C1768.77304305 181.69189679 1768.78235269 186.6885144 1768.79010046 191.68514314 C1768.80211853 200.46190288 1768.80677324 209.23864238 1768.80655417 218.01540998 C1768.80625206 231.15437266 1768.81738129 244.293309 1768.83064798 257.4322641 C1768.85290606 279.82742184 1768.86560782 302.2225761 1768.87299347 324.61774254 C1768.88049592 347.30890206 1768.89225507 370.00005335 1768.90914917 392.69120789 C1768.91022245 394.13946001 1768.91129536 395.58771214 1768.91236792 397.03596427 C1768.91669862 402.8755604 1768.92105323 408.71515651 1768.92543579 414.5547526 C1768.97845271 485.29411022 1769.00956484 556.03347237 1769.03576157 626.77284428 C1769.04395778 648.88807189 1769.05271806 671.0032992 1769.06191018 693.11852642 C1769.06496796 700.47809294 1769.06801229 707.83765946 1769.07105349 715.19722599 C1769.07138845 716.00781148 1769.07172342 716.81839696 1769.07206853 717.65354565 C1769.10640413 800.80731257 1769.13788233 883.96108138 1769.18077307 1053.32001421 C1769.18274109 1062.98720943 1769.18474987 1072.65440464 1769.18676443 1082.32159985 C1769.18694599 1083.19326885 1769.18712754 1084.06493784 1769.1873146 1084.96302105 C1769.19099427 1102.623706 1769.19471484 1120.28439093 1769.19849324 1137.94507586 C1769.19944026 1142.37215086 1769.20038386 1146.79922587 1769.20131906 1151.22630088 C1769.21899619 1234.86853034 1769.24533459 1318.51074172 1769.30322266 1402.1529541 C1769.30383198 1403.03395626 1769.30444131 1403.91495842 1769.3050691 1404.82265761 C1769.3253559 1434.12251326 1769.34669753 1463.42236814 1769.36814929 1492.72222295 C1769.38752966 1519.19698058 1769.40666219 1545.67173836 1769.4249382 1572.14649677 C1769.42583931 1573.4510657 1769.42583931 1573.4510657 1769.42675863 1574.78198955 C1769.46431062 1629.23686314 1769.48979953 1683.69173193 1769.50270462 1738.14661694 C1769.50290538 1738.98744637 1769.50310614 1739.82827581 1769.50331298 1740.69458493 C1769.51211481 1777.61858202 1769.51830076 1814.54257911 1769.52155287 1851.4665771 C1769.5228696 1866.32001431 1769.52452584 1881.17345149 1769.52635047 1896.02688865 C1769.52664928 1898.4896534 1769.5269355 1900.95241815 1769.52721975 1903.4151829 C1769.53164356 1941.09600708 1769.54401966 1978.77680644 1769.57980251 2016.45761514 C1769.58057405 2017.27052899 1769.58134559 2018.08344284 1769.58214052 2018.92099045 C1769.59459732 2031.99796862 1769.6076989 2045.07494614 1769.6208917 2058.15192359 C1769.65831916 2095.26081498 1769.69085162 2132.3696779 1769.68770838 2169.47859132 C1769.6876468 2170.2311111 1769.68758522 2170.98363087 1769.68752177 2171.75895428 C1769.68607605 2188.17394543 1769.6818677 2204.58893467 1769.67495088 2221.00392439 C1769.67223556 2227.54995147 1769.6698902 2234.09597866 1769.66766357 2240.64200592 C1769.66741086 2241.35607347 1769.66715814 2242.07014101 1769.66689776 2242.80584697 C1769.65905163 2265.47470334 1769.68201418 2288.14338895 1769.7227055 2310.81220634 C1769.76372959 2333.73867081 1769.7704491 2356.66491961 1769.73496647 2379.591416 C1769.71584269 2392.64447913 1769.72440061 2405.69683217 1769.77301117 2418.74982274 C1769.80253342 2427.40360322 1769.7962109 2436.05686367 1769.75995003 2444.71061772 C1769.74037968 2449.62623079 1769.73673856 2454.54044993 1769.77705644 2459.45596782 C1769.81332472 2463.91285142 1769.80389963 2468.3671727 1769.75743517 2472.82394043 C1769.74882141 2474.42529094 1769.75704192 2476.02684093 1769.78397018 2477.62798819 C1769.97045516 2489.50354951 1769.97045516 2489.50354951 1766.33785647 2493.97236391 C1763.81434011 2496.02677799 1761.31580356 2497.69016081 1758.5 2499.3125 C1757.0995899 2500.27535921 1755.70385353 2501.24511644 1754.31640625 2502.2265625 C1697.05669793 2539.28448565 1628.4317492 2561.23198511 1560.0703125 2561.515625 C1558.35867416 2561.52614647 1558.35867416 2561.52614647 1556.61245728 2561.53688049 C1552.94993085 2561.55428111 1549.28756625 2561.56073287 1545.625 2561.5625 C1543.745849 2561.56351212 1543.745849 2561.56351212 1541.82873535 2561.56454468 C1522.86483177 2561.54831729 1504.27968226 2561.12013919 1485.5 2558.3125 C1483.75009766 2558.05509033 1483.75009766 2558.05509033 1481.96484375 2557.79248047 C1446.18174559 2552.34616833 1412.68331451 2541.86687503 1380.5 2525.3125 C1379.7177002 2524.9103125 1378.93540039 2524.508125 1378.12939453 2524.09375 C1354.62996852 2511.83595567 1334.59375366 2494.58004591 1315.9375 2475.9375 C1315.05642578 2475.06867187 1314.17535156 2474.19984375 1313.26757812 2473.3046875 C1307.23900673 2467.2894635 1301.79484415 2460.97733879 1296.5 2454.3125 C1295.49863107 2453.09296425 1294.49507858 2451.87521441 1293.48828125 2450.66015625 C1275.26931141 2428.39993615 1260.50198993 2403.89504456 1246.05078125 2379.1015625 C1241.45064638 2371.20946606 1236.79389546 2363.35156397 1232.125 2355.5 C1231.32608793 2354.15600739 1230.52717843 2352.81201324 1229.72827148 2351.46801758 C1228.12156915 2348.76543896 1226.51448459 2346.06308801 1224.90722656 2343.36083984 C1221.32992987 2337.34572866 1217.75789666 2331.32749245 1214.18548584 2325.30947876 C1212.20720807 2321.97702336 1210.22858658 2318.64477206 1208.25 2315.3125 C1207.45833169 2313.97916764 1206.66666502 2312.64583431 1205.875 2311.3125 C1205.483125 2310.6525 1205.09125 2309.9925 1204.6875 2309.3125 C1165.5 2243.3125 1126.3125 2177.3125 496.93756104 1117.31257629 C496.14572194 1115.97897023 495.35385181 1114.64538259 494.56195068 1113.31181335 C492.58516754 1109.98280309 490.60892107 1106.65347653 488.63378906 1103.32348633 C485.04342744 1097.27149703 481.44890666 1091.22215716 477.8348999 1085.18424988 C468.03423921 1068.8099128 458.48865075 1052.3412777 449.31054688 1035.60693359 C446.22764278 1029.99734516 443.11190895 1024.40603234 440 1018.8125 C438.74855974 1016.5599726 437.4972575 1014.3073685 436.24609375 1012.0546875 C433.76027445 1007.58008332 431.27319771 1003.10618143 428.78515625 998.6328125 C421.99799616 986.42733133 415.23121592 974.21094663 408.49002075 961.9800415 C403.67696489 953.24805535 398.84644095 944.52601953 394 935.8125 C388.83764383 926.52989294 383.69164365 917.23848426 378.5625 907.9375 C378.23105988 907.33649475 377.89961975 906.7354895 377.55813599 906.11627197 C374.86791538 901.23765896 372.17874901 896.35846503 369.48962402 891.47924805 C367.13940764 887.21506088 364.78877586 882.95110307 362.4375 878.6875 C361.94021896 877.78575043 361.94021896 877.78575043 361.43289185 876.86578369 C356.0233813 867.05805219 350.58860674 857.26453259 345.14428711 847.47607422 C340.23995092 838.6545674 335.36158212 829.81896655 330.48974609 820.97949219 C325.67677762 812.24769162 320.84634141 803.52584057 316 794.8125 C308.80861799 781.88143302 301.65846448 768.92790904 294.51611328 755.96972656 C291.51181494 750.51942669 288.50488729 745.07057764 285.49816895 739.62161255 C284.5009095 737.81414841 283.50384357 736.00657766 282.50683594 734.19897461 C279.48118414 728.71364392 276.45448604 723.22890179 273.42304993 717.74676514 C271.71890036 714.66485975 270.01552283 711.58252814 268.3125 708.5 C267.97866302 707.89581238 267.64482605 707.29162476 267.3008728 706.66912842 C262.21807667 697.46642658 257.20289772 688.2285483 252.21533203 678.97387695 C248.62287329 672.32932467 244.9301991 665.74838627 241.1875 659.1875 C235.38994546 649.01391521 229.86399386 638.70815831 224.3762207 628.36572266 C223.70006806 627.09145251 223.02388027 625.81720101 222.34765625 624.54296875 C222.01764114 623.92105652 221.68762604 623.29914429 221.34761047 622.65838623 C218.39677084 617.10435107 215.39619096 611.57850475 212.375 606.0625 C208.04926039 598.16393012 203.76339175 590.24490458 199.5 582.3125 C195.16973052 574.25764278 190.82217775 566.21287703 186.4375 558.1875 C171.8272651 531.4427675 157.3049498 504.64893181 143.25390625 477.60546875 C141.14813981 473.55265463 139.02777594 469.50791089 136.89517212 465.46916199 C125.1238422 443.16540344 113.62691697 420.73483742 102.36401367 398.17089844 C100.62771469 394.6924872 98.88769985 391.21594894 97.14671803 387.73987961 C95.78205933 385.01417903 94.41930999 382.28752737 93.05713463 379.56058502 C92.4154678 378.27659117 91.77322193 376.9928865 91.13035011 375.70949554 C85.05439493 363.5750354 85.05439493 363.5750354 82.5 357.3125 C77.88 358.3025 73.26 359.2925 68.5 360.3125 C69.12843762 370.59699426 69.98822659 380.82881215 71.02903557 391.0790329 C71.48618131 395.58842813 71.93292381 400.09886145 72.38134766 404.60913086 C72.47674678 405.56681177 72.5721459 406.52449268 72.67043591 407.51119423 C83.09944866 512.30041647 90.60055748 617.37043691 104.5 882.3125 C104.53946495 883.2339682 104.5789299 884.1554364 104.61959076 885.10482788 C106.62272596 931.99351998 107.94647715 978.89647834 109.125 1025.8125 C109.15660469 1027.066394 109.18820938 1028.32028801 109.22077179 1029.6121788 C111.7569408 1130.43400686 112.63650447 1231.25259856 112.6184098 1353.87050153 C112.61427408 1365.39437216 112.61266943 1376.91824061 112.61310768 1388.44211197 C112.61313637 1389.2305276 112.61316507 1390.01894324 112.61319463 1390.83125026 C112.6133511 1394.85474399 112.61354304 1398.87823771 112.61374746 1402.90173143 C112.61513755 1431.66995333 112.61178589 1460.43817298 112.60573006 1489.2063942 C112.59976526 1517.61122779 112.5959466 1546.01606041 112.59487724 1574.42089462 C112.59482563 1575.75433899 112.59482563 1575.75433899 112.59477296 1577.11472163 C112.59445967 1585.236505 112.59417199 1593.35828836 112.59391499 1601.48007172 C112.59327639 1621.65118326 112.59231756 1641.82229478 112.59113979 1661.9934063 C112.59108648 1662.91097509 112.59103316 1663.82854388 112.59097823 1664.77391778 C112.58836985 1709.18212394 112.58206782 1753.59032945 112.57543945 1797.99853516 C112.57314736 1813.36885579 112.5708718 1828.73917642 112.56866455 1844.10949707 C112.56845913 1845.53980851 112.56845913 1845.53980851 112.56824955 1846.99901514 C112.56188079 1891.50116254 112.55817197 1936.00331004 112.55512976 1980.50545778 C112.5549317 1983.40201127 112.5547325 1986.29856475 112.55453308 1989.19511824 C112.55321305 2008.39409461 112.55193845 2027.59307097 112.55069422 2046.79204734 C112.54821906 2084.97855352 112.54547744 2123.16505967 112.54255217 2161.35156582 C112.54241293 2163.16924874 112.54227387 2164.98693165 112.54213501 2166.80461457 C112.53589866 2248.41417695 112.526566 2330.02373887 112.51586914 2411.63330078 C112.51576921 2412.39588995 112.51566927 2413.15847911 112.51556631 2413.94417704 C112.51056801 2452.06695138 112.50539182 2490.18972571 112.5 2528.3125 C110.57570301 2529.12069912 108.6507522 2529.92734164 106.7255249 2530.73332214 C105.65363796 2531.18268725 104.58175102 2531.63205236 103.47738266 2532.0950346 C100.31908024 2533.38647892 97.15609986 2534.49923448 93.890625 2535.48828125 C92.74094238 2535.83729492 91.59125977 2536.18630859 90.40673828 2536.54589844 C88.59665283 2537.08005371 88.59665283 2537.08005371 86.75 2537.625 C86.11060486 2537.81437134 85.47120972 2538.00374268 84.81243896 2538.19885254 C58.97559723 2545.82866229 33.23896116 2551.87452851 6.5 2555.3125 C5.52417969 2555.44382324 4.54835937 2555.57514648 3.54296875 2555.71044922 C-28.59286108 2559.85532018 -63.48499575 2559.17657804 -95.5 2554.3125 C-97.09811523 2554.07104248 -97.09811523 2554.07104248 -98.72851562 2553.82470703 C-127.85743275 2549.18813169 -157.69198612 2539.64368249 -180.5 2520.3125 C-181.36625 2519.59578125 -182.2325 2518.8790625 -183.125 2518.140625 C-210.48896269 2494.61429123 -220.6415158 2459.94822443 -223.28109602 2425.10105477 C-223.6746221 2418.29032833 -223.64144537 2411.47856766 -223.63455451 2404.65924287 C-223.63655527 2402.99730497 -223.63899019 2401.33536754 -223.64181561 2399.67343084 C-223.64831411 2395.11177819 -223.64865704 2390.55014292 -223.64797833 2385.98848647 C-223.64833745 2381.00527013 -223.65447441 2376.02206025 -223.65985495 2371.03884727 C-223.66851667 2362.27328266 -223.6734647 2353.50772199 -223.67599221 2344.74215356 C-223.6797832 2331.61981246 -223.68921507 2318.49747954 -223.69970338 2305.3751423 C-223.7173912 2283.01138357 -223.73021612 2260.64762431 -223.74032974 2238.28386116 C-223.75058481 2215.61675663 -223.76291718 2192.94965473 -223.77774811 2170.28255272 C-223.77869094 2168.83709835 -223.77963338 2167.39164398 -223.78057543 2165.94618961 C-223.78389753 2160.85052117 -223.78722162 2155.75485273 -223.79055557 2150.65918429 C-223.84155214 2072.70501124 -223.87808759 1994.75083277 -223.91305796 1909.41091384 C-223.91406099 1906.95682877 -223.91506574 1904.50274369 -223.91607083 1902.04865862 C-223.94968659 1819.92826461 -223.97956415 1737.80786917 -224.04586862 1513.19798842 C-224.05295572 1484.14486585 -224.0602989 1455.09174334 -224.06777761 1426.03862087 C-224.06891593 1421.61639979 -224.07005118 1417.1941787 -224.07117855 1412.77195762 C-224.09248124 1329.23221941 -224.12130361 1245.69249458 -224.17626953 1162.152771 C-224.17684793 1161.2730384 -224.17742633 1160.3933058 -224.17802226 1159.48691464 C-224.19727397 1130.23013502 -224.21736233 1100.97335597 -224.23754841 1071.71657697 C-224.25578535 1045.28122702 -224.27378728 1018.84587692 -224.29099464 992.41052628 C-224.29156014 991.54211339 -224.29212564 990.67370051 -224.29270827 989.77897208 C-224.32805662 935.40362345 -224.35256231 881.02827824 -224.36591148 826.65291977 C-224.366119 825.81328095 -224.36632651 824.97364213 -224.36654031 824.10855971 C-224.37564228 787.23619163 -224.38243263 750.36382349 -224.38660803 713.49145453 C-224.38829661 698.65843695 -224.39030365 683.82541943 -224.39247633 668.99240192 C-224.39283347 666.53299859 -224.3931795 664.07359526 -224.39352403 661.61419193 C-224.39886724 623.98428802 -224.41150849 586.35440495 -224.44547701 548.72451496 C-224.44620958 547.91269197 -224.44694215 547.10086897 -224.44769691 546.26444528 C-224.45952454 533.20488789 -224.47195105 520.14533106 -224.48447089 507.08577431 C-224.51999621 470.02358847 -224.55121861 432.96142551 -224.55038524 395.89921999 C-224.55037035 395.14758109 -224.55035545 394.3959422 -224.55034011 393.62152637 C-224.54992437 377.22531824 -224.5470354 360.82911152 -224.54172302 344.43290427 C-224.53964362 337.89421726 -224.53789885 331.35553017 -224.53626251 324.81684303 C-224.53607521 324.10357531 -224.53588791 323.39030759 -224.53569493 322.6554257 C-224.52990975 300.01453366 -224.55186174 277.37378177 -224.58978767 254.73292386 C-224.62803172 231.83299729 -224.63539622 208.93324379 -224.60481049 186.03328735 C-224.58836902 172.99625309 -224.59682893 159.95979648 -224.64137359 146.92282475 C-224.66847407 138.27831518 -224.66328113 129.63422523 -224.6311793 120.98973348 C-224.6138715 116.0802618 -224.61085732 111.17192136 -224.6474692 106.26253036 C-224.68041395 101.81010915 -224.67213232 97.35976194 -224.63062263 92.90742965 C-224.62297594 91.30874705 -224.63043577 89.70990316 -224.65479864 88.11138792 C-224.82348903 76.25943512 -224.82348903 76.25943512 -221.52914665 71.41325148 C-219.29574755 69.14572549 -217.04925899 67.21114123 -214.5 65.3125 C-213.48040541 64.43256925 -212.46196055 63.55130221 -211.4453125 62.66796875 C-169.41737391 30.36117385 -118.20009841 12.88706437 -66.3125 4.5625 C-64.46289673 4.26400146 -64.46289673 4.26400146 -62.57592773 3.95947266 C-41.76020298 0.7967313 -21.03363121 -0.06503245 0 0 Z " fill="#0A0808" transform="translate(227.5,3.6875)"/>
</svg>
