<?xml version="1.0" encoding="UTF-8"?>
<svg version="1.1" xmlns="http://www.w3.org/2000/svg" width="2000" height="1999">
<path d="M0 0 C1.12738712 0.00040031 1.12738712 0.00040031 2.27754974 0.00080872 C25.55067878 0.01116989 48.73280081 0.24711907 71.9375 2.1875 C72.74054565 2.25302063 73.54359131 2.31854126 74.37097168 2.38604736 C150.19608194 8.58635064 224.49321332 22.88787681 296.9375 46.1875 C298.22236208 46.59611657 299.50735773 47.00431335 300.79248047 47.41210938 C344.99824424 61.4698902 387.52941478 79.72712876 429.07885742 100.27087402 C431.89720413 101.66079688 434.72250641 103.03642706 437.546875 104.4140625 C451.31203437 111.16431656 464.6924941 118.46972065 477.9375 126.1875 C479.01966797 126.8170459 480.10183594 127.4465918 481.21679688 128.09521484 C503.32949145 140.99428668 524.93938564 154.53797327 545.9375 169.1875 C546.65212402 169.68459473 547.36674805 170.18168945 548.10302734 170.69384766 C564.40102305 182.04670902 580.44993206 193.74772082 595.9375 206.1875 C596.57252441 206.69635742 597.20754883 207.20521484 597.86181641 207.72949219 C605.68852392 214.01147992 613.41783985 220.38998628 621.0065918 226.95776367 C624.36531041 229.8605433 627.77465304 232.67397109 631.25 235.4375 C637.61805438 240.60332583 643.50096591 246.27522941 649.43359375 251.9296875 C652.69553031 255.03725636 656.01636962 258.06978964 659.359375 261.08984375 C666.94764494 267.99334036 674.16935964 275.26917321 681.41186523 282.53149414 C683.75977056 284.884793 686.11301968 287.2326539 688.46679688 289.58007812 C689.98469597 291.09863758 691.50228506 292.61750696 693.01953125 294.13671875 C693.71133987 294.82650314 694.4031485 295.51628754 695.11592102 296.22697449 C699.02456221 300.154242 702.76022485 304.17969004 706.37104797 308.38293457 C708.93322422 311.33458237 711.6308173 314.1573835 714.3125 317 C719.03946376 322.04660944 723.51259143 327.22084148 727.8359375 332.62109375 C729.91751427 335.16309363 732.0878838 337.58279335 734.3125 340 C738.29433587 344.37450826 741.95492083 348.93279075 745.57641602 353.60400391 C748.53795484 357.42064568 751.55709829 361.17961717 754.62988281 364.90722656 C761.82293903 373.64381985 768.57763109 382.65912615 775.21875 391.8203125 C776.87750511 394.10487067 778.54675446 396.38137145 780.21875 398.65625 C833.71885045 471.71178296 876.32908909 553.78477214 906.9375 641.1875 C907.17341858 641.85896057 907.40933716 642.53042114 907.65240479 643.222229 C935.65762709 723.02175343 952.20011903 806.14831868 915.60168457 1252.12524414 C914.94375695 1254.16807253 914.29426153 1256.21338949 913.64746094 1258.25976562 C888.41892558 1337.95815433 851.19389821 1415.59878289 801.21972656 1490.31347656 C799.77140287 1492.43025735 798.33494532 1494.55487164 796.8984375 1496.6796875 C781.06144357 1520.04319726 764.287285 1542.71576912 746.32910156 1564.49609375 C744.33131881 1566.92427601 742.35568576 1569.37036415 740.375 1571.8125 C732.63014339 1581.2595229 724.66364035 1590.50746633 716.38671875 1599.4921875 C714.46670819 1601.60511778 712.58372738 1603.73784255 710.71240234 1605.89331055 C699.9006761 1618.25924932 688.34614935 1629.942696 676.71899414 1641.53637695 C674.4735842 1643.77635186 672.23367161 1646.02172696 669.99414062 1648.26757812 C668.53938354 1649.72167542 667.08431682 1651.17546303 665.62890625 1652.62890625 C664.97354385 1653.28629288 664.31818146 1653.9436795 663.64295959 1654.62098694 C659.80508808 1658.43970718 655.86022768 1662.07857018 651.75469971 1665.6084137 C648.79989539 1668.1760407 645.97195973 1670.87671996 643.125 1673.5625 C638.07839056 1678.28946376 632.90415852 1682.76259143 627.50390625 1687.0859375 C624.96190637 1689.16751427 622.54220665 1691.3378838 620.125 1693.5625 C615.16032442 1698.08082462 609.93662603 1702.19311936 604.63671875 1706.3046875 C601.53713821 1708.70991609 598.47574397 1711.15884597 595.42333984 1713.62353516 C587.73850121 1719.82423807 579.91926779 1725.82159343 571.97363281 1731.68408203 C570.65037947 1732.66113168 569.32928674 1733.64111673 568.01074219 1734.62451172 C538.72973591 1756.44042127 507.64265904 1776.11794319 475.9375 1794.1875 C474.86338867 1794.80077148 473.78927734 1795.41404297 472.68261719 1796.04589844 C430.0624874 1820.26216658 385.76520525 1840.83906129 339.9375 1858.1875 C339.25558594 1858.44595703 338.57367187 1858.70441406 337.87109375 1858.97070312 C261.75045808 1887.76728322 181.9127299 1906.19982525 71.9375 1917.1875 C71.18088074 1917.24915344 70.42426147 1917.31080688 69.64471436 1917.37432861 C23.5394819 1921.08265114 -23.96557776 1920.87610259 -70.0625 1917.1875 C-71.2420224 1917.09628876 -71.2420224 1917.09628876 -72.44537354 1917.00323486 C-116.04512372 1913.63059753 -159.30715464 1907.35872675 -202.0625 1898.1875 C-202.88451904 1898.01154297 -203.70653809 1897.83558594 -204.5534668 1897.65429688 C-227.97704865 1892.62041194 -251.06699283 1886.70405992 -274.0088501 1879.8034668 C-276.01409782 1879.20201763 -278.02111307 1878.60689287 -280.02880859 1878.01367188 C-346.27883703 1858.39326975 -411.5736512 1830.69524417 -471.25488281 1795.81787109 C-474.30036463 1794.04937305 -477.36327218 1792.31396249 -480.4296875 1790.58203125 C-494.04784937 1782.86262385 -507.28703824 1774.72168718 -520.30419922 1766.02832031 C-523.05217248 1764.19439233 -525.80820332 1762.37318567 -528.56640625 1760.5546875 C-554.07411619 1743.70076233 -578.82597405 1725.79584499 -602.4296875 1706.35546875 C-604.17979526 1704.91435627 -605.93499612 1703.47940597 -607.6953125 1702.05078125 C-618.17708247 1693.54007298 -628.43640504 1684.78517269 -638.3671875 1675.63671875 C-640.48011778 1673.71670819 -642.61284255 1671.83372738 -644.76831055 1669.96240234 C-657.13424932 1659.1506761 -668.817696 1647.59614935 -680.41137695 1635.96899414 C-682.65135186 1633.7235842 -684.89672696 1631.48367161 -687.14257812 1629.24414062 C-688.59667542 1627.78938354 -690.05046303 1626.33431682 -691.50390625 1624.87890625 C-692.48998619 1623.89586266 -692.48998619 1623.89586266 -693.49598694 1622.89295959 C-697.31470718 1619.05508808 -700.95357018 1615.11022768 -704.4834137 1611.00469971 C-707.0510407 1608.04989539 -709.75171996 1605.22195973 -712.4375 1602.375 C-717.16446376 1597.32839056 -721.63759143 1592.15415852 -725.9609375 1586.75390625 C-728.04251427 1584.21190637 -730.2128838 1581.79220665 -732.4375 1579.375 C-736.41933587 1575.00049174 -740.07992083 1570.44220925 -743.70141602 1565.77099609 C-746.66295484 1561.95435432 -749.68209829 1558.19538283 -752.75488281 1554.46777344 C-759.94452996 1545.73532076 -766.69677148 1536.72456961 -773.33496094 1527.56787109 C-775.02109753 1525.24454834 -776.71654865 1522.92829941 -778.4140625 1520.61328125 C-785.92996852 1510.32994234 -793.0906698 1499.84610436 -800.0625 1489.1875 C-800.51834473 1488.49333984 -800.97418945 1487.79917969 -801.44384766 1487.08398438 C-848.39660632 1415.51439614 -885.87519583 1338.18754705 -959.0625 974.1875 C-959.08183594 973.45756836 -959.10117187 972.72763672 -959.12109375 971.97558594 C-959.34810926 963.0390331 -959.29920309 954.1230418 -959.0625 945.1875 C-959.04058594 944.3428418 -959.01867187 943.49818359 -958.99609375 942.62792969 C-957.09588237 871.54502239 -948.85580632 801.34454994 -932.0625 732.1875 C-931.61487305 730.33535889 -931.61487305 730.33535889 -931.15820312 728.44580078 C-926.13130181 707.84666446 -920.16778584 687.57699754 -913.75524902 667.37115479 C-913.08604009 665.26170211 -912.42035342 663.15116173 -911.75488281 661.04052734 C-891.61161129 597.38792375 -863.72256491 535.28803509 -829.65527344 477.88085938 C-828.23859102 475.48526764 -826.83722381 473.08191348 -825.4453125 470.671875 C-811.5849454 446.71925274 -796.15645403 423.68763774 -780.0625 401.1875 C-779.52979492 400.43936035 -778.99708984 399.6912207 -778.44824219 398.92041016 C-767.68847796 383.81646305 -756.26820001 369.35417588 -744.5390625 354.99609375 C-743.23202459 353.3951452 -741.92826644 351.79152024 -740.625 350.1875 C-732.50648412 340.21332335 -724.26615498 330.37387755 -715.546875 320.91796875 C-713.61286464 318.7923819 -711.71681845 316.64717164 -709.83325195 314.47753906 C-698.8902023 301.96079834 -687.18477342 290.14659067 -675.41674805 278.41137695 C-673.09891162 276.09897277 -670.78656696 273.78117102 -668.47460938 271.46289062 C-666.97427936 269.96322043 -665.4736397 268.46385994 -663.97265625 266.96484375 C-662.95680199 265.94595314 -662.95680199 265.94595314 -661.92042542 264.90647888 C-658.02906953 261.03394462 -654.03601506 257.33719089 -649.87200928 253.75889587 C-646.91912794 251.19458432 -644.09431622 248.49578618 -641.25 245.8125 C-636.20339056 241.08553624 -631.02915852 236.61240857 -625.62890625 232.2890625 C-623.08690637 230.20748573 -620.66720665 228.0371162 -618.25 225.8125 C-613.28047891 221.28976551 -608.05142712 217.17385969 -602.74609375 213.05859375 C-599.71821057 210.7090844 -596.72999018 208.31487162 -593.7512207 205.90356445 C-523.89715456 149.43921297 -443.95959638 103.46290242 -340.08874512 61.95709229 C-338.08722992 61.19689272 -336.08707328 60.43319239 -334.08691406 59.66943359 C-253.0060851 28.81014395 -166.89983322 10.14325365 -55.0625 1.1875 C-54.27702789 1.14017731 -53.49155579 1.09285461 -52.68228149 1.0440979 C-35.13077554 0.01370535 -17.57484951 -0.01400134 0 0 Z " fill="#210F75" transform="translate(999.0625,39.8125)"/>
<path d="M0 0 C0.72488239 0.00026688 1.44976479 0.00053375 2.19661331 0.00080872 C25.84616873 0.01171202 49.41292406 0.32215511 73 2.1875 C73.83631958 2.25302063 74.67263916 2.31854126 75.53430176 2.38604736 C127.98332898 6.53675109 179.73803796 14.31285829 231 26.1875 C231.73118042 26.35638733 232.46236084 26.52527466 233.21569824 26.69927979 C295.0490043 41.03035629 355.20738442 62.02774285 413 88.1875 C413.61945496 88.46682373 414.23890991 88.74614746 414.87713623 89.03393555 C444.28796554 102.29751046 473.18031554 116.83274959 501 133.1875 C502.00144043 133.77595703 503.00288086 134.36441406 504.03466797 134.97070312 C526.5569888 148.25569435 548.51898399 162.27866187 570 177.1875 C570.76151367 177.71585449 571.52302734 178.24420898 572.30761719 178.78857422 C588.56329263 190.09923977 604.562146 201.7801027 620 214.1875 C620.6403418 214.7016748 621.28068359 215.21584961 621.94042969 215.74560547 C630.51909554 222.64709861 639.00664201 229.64790815 647.37597656 236.80175781 C649.06714221 238.24479092 650.76374619 239.68124817 652.4609375 241.1171875 C658.94559384 246.61964603 665.29770349 252.23275209 671.51855469 258.03222656 C674.38395334 260.70318113 677.27672997 263.32480396 680.25 265.875 C683.86617434 268.99736902 687.20551021 272.35317976 690.53125 275.78125 C692.5144919 277.71428324 694.52196373 279.51521726 696.62109375 281.31640625 C701.83937335 285.84637397 706.68873253 290.73035987 711.5625 295.625 C712.46935547 296.52798828 713.37621094 297.43097656 714.31054688 298.36132812 C718.89550759 302.95293853 723.33282728 307.60310698 727.55834961 312.52758789 C729.28256901 314.51284915 731.10877606 316.36149068 733 318.1875 C736.17089998 321.31595964 739.1256996 324.55605352 742.02734375 327.93359375 C743.96458906 330.14704037 745.95084932 332.30936491 747.95166016 334.46533203 C752.70810378 339.59380624 757.24107436 344.83360754 761.62890625 350.28515625 C764.31831577 353.57713528 767.09181954 356.78744494 769.875 360 C775.28625049 366.27284932 780.43991422 372.71375651 785.5078125 379.265625 C787.11074785 381.33013859 788.72632058 383.38432476 790.34375 385.4375 C797.95511867 395.1215127 805.30516414 404.96002897 812.44287109 414.99804688 C813.95332862 417.12187614 815.47040237 419.24084619 816.98828125 421.359375 C869.99012468 495.60228138 912.30556314 577.33918003 943 663.1875 C943.455889 664.44884923 943.91211464 665.71007683 944.36865234 666.97119141 C974.93155656 751.63344053 992.5483756 841.09387835 1001 1010.1875 C1000.98211426 1011.3955127 1000.96422852 1012.60352539 1000.94580078 1013.84814453 C999.51907011 1104.00521907 986.40704321 1193.7142696 897 1444.1875 C896.5059668 1445.20424805 896.01193359 1446.22099609 895.50292969 1447.26855469 C888.69481003 1461.23980485 881.40071629 1474.84425157 873.64550781 1488.31103516 C871.98065685 1491.2213132 870.34204608 1494.14491056 868.7109375 1497.07421875 C862.36091163 1508.46546485 855.75495817 1519.61424036 848.68212891 1530.57080078 C846.78856068 1533.51641242 844.91512132 1536.47432694 843.04296875 1539.43359375 C836.35368652 1549.98683218 829.62223579 1560.43436259 822.22167969 1570.50341797 C820.88770332 1572.34230065 819.5860435 1574.20125448 818.2890625 1576.06640625 C797.25121421 1606.30585548 774.13208631 1635.58721303 749.2265625 1662.74609375 C747.30866793 1664.84904833 745.42623955 1666.97419156 743.5625 1669.125 C737.18579611 1676.45142574 730.65098988 1683.65033228 723.70922852 1690.44580078 C722.02752308 1692.15945406 720.47339526 1693.93325887 718.91796875 1695.76171875 C714.5213449 1700.81407096 709.80721988 1705.5266367 705.0625 1710.25 C704.20720703 1711.10916016 703.35191406 1711.96832031 702.47070312 1712.85351562 C698.0033774 1717.31402621 693.46599546 1721.61464414 688.67749023 1725.72827148 C686.68735167 1727.45946901 684.83177222 1729.29030734 683 1731.1875 C679.87154036 1734.35839998 676.63144648 1737.3131996 673.25390625 1740.21484375 C671.04045963 1742.15208906 668.87813509 1744.13834932 666.72216797 1746.13916016 C661.59369376 1750.89560378 656.35389246 1755.42857436 650.90234375 1759.81640625 C647.61036968 1762.50581171 644.39995032 1765.27920396 641.1875 1768.0625 C634.85520971 1773.52853991 628.34017013 1778.72010366 621.72802734 1783.84179688 C620.0352856 1785.1600213 618.35381445 1786.49124402 616.67578125 1787.828125 C606.97684707 1795.54476423 597.03074189 1802.90887502 587 1810.1875 C586.34821777 1810.66203613 585.69643555 1811.13657227 585.02490234 1811.62548828 C547.83061644 1838.60919452 508.5377446 1862.59338116 468 1884.1875 C466.96198242 1884.7434082 465.92396484 1885.29931641 464.85449219 1885.87207031 C394.2744488 1923.53286292 318.85703431 1951.35200971 241.28540039 1970.61907959 C239.16911492 1971.14543806 237.05411007 1971.67661631 234.93945312 1972.20947266 C176.86009946 1986.74449125 116.75786828 1995.01909432 57 1998.1875 C56.23671387 1998.22986786 55.47342773 1998.27223572 54.68701172 1998.31588745 C37.12876222 1999.27075979 19.5786528 1999.38954721 2 1999.375 C1.27511761 1999.37473312 0.55023521 1999.37446625 -0.19661331 1999.37419128 C-23.84783489 1999.36328721 -47.41051447 1999.03592066 -71 1997.1875 C-71.82218018 1997.12433594 -72.64436035 1997.06117187 -73.49145508 1996.99609375 C-130.03877267 1992.6244584 -185.94386068 1983.82320955 -241 1970.1875 C-241.78679138 1969.99327454 -242.57358276 1969.79904907 -243.38421631 1969.59893799 C-319.68841356 1950.71655168 -393.26148579 1922.12121667 -497.25048828 1866.80615234 C-500.79208285 1864.72119656 -504.37522166 1862.71544505 -507.96166992 1860.70898438 C-519.30700454 1854.3446063 -530.19253015 1847.37763204 -541.01904297 1840.17138672 C-544.07183801 1838.13969036 -547.13117405 1836.11812956 -550.19140625 1834.09765625 C-576.46967374 1816.70981647 -602.03703564 1798.39415067 -626.3671875 1778.35546875 C-628.11729526 1776.91435627 -629.87249612 1775.47940597 -631.6328125 1774.05078125 C-641.91649203 1765.70091318 -651.97153262 1757.09340628 -661.78125 1748.19140625 C-663.79308393 1746.37438018 -665.82660434 1744.58805608 -667.875 1742.8125 C-675.21782423 1736.40800828 -682.44316734 1729.85843042 -689.26025391 1722.89477539 C-690.96308179 1721.22372917 -692.72511533 1719.68111319 -694.54296875 1718.13671875 C-699.78355839 1713.57628819 -704.66267906 1708.67080518 -709.5625 1703.75 C-710.46935547 1702.84701172 -711.37621094 1701.94402344 -712.31054688 1701.01367188 C-716.89550759 1696.42206147 -721.33282728 1691.77189302 -725.55834961 1686.84741211 C-727.28256901 1684.86215085 -729.10877606 1683.01350932 -731 1681.1875 C-734.17089998 1678.05904036 -737.1256996 1674.81894648 -740.02734375 1671.44140625 C-741.96458906 1669.22795963 -743.95084932 1667.06563509 -745.95166016 1664.90966797 C-750.70810378 1659.78119376 -755.24107436 1654.54139246 -759.62890625 1649.08984375 C-762.31831577 1645.79786472 -765.09181954 1642.58755506 -767.875 1639.375 C-773.28625049 1633.10215068 -778.43991422 1626.66124349 -783.5078125 1620.109375 C-785.11074785 1618.04486141 -786.72632058 1615.99067524 -788.34375 1613.9375 C-795.95511867 1604.2534873 -803.30516414 1594.41497103 -810.44287109 1584.37695312 C-811.95332862 1582.25312386 -813.47040237 1580.13415381 -814.98828125 1578.015625 C-865.10942843 1507.80788509 -905.95808856 1430.69880029 -941 1336.1875 C-941.455889 1334.92615077 -941.91211464 1333.66492317 -942.36865234 1332.40380859 C-972.93650925 1247.72784003 -990.59460132 1158.21641457 -999 987.1875 C-998.97317139 985.38249023 -998.97317139 985.38249023 -998.94580078 983.54101562 C-997.38301208 893.15022973 -983.99000588 803.30409308 -895 555.1875 C-894.5059668 554.17075195 -894.01193359 553.15400391 -893.50292969 552.10644531 C-886.65258027 538.04853354 -879.29346022 524.37348451 -871.49902344 510.81835938 C-869.69381543 507.65013113 -867.94306405 504.45438807 -866.19726562 501.25317383 C-860.21309352 490.30374963 -853.66204976 479.73469768 -847 469.1875 C-846.36755371 468.18203125 -845.73510742 467.1765625 -845.08349609 466.140625 C-836.09930473 451.87592027 -826.8149288 437.8932131 -817 424.1875 C-815.93354007 422.68753817 -814.86713306 421.1875387 -813.80078125 419.6875 C-801.86929457 402.9731408 -789.39015279 386.69000953 -776.34423828 370.83154297 C-774.51603339 368.59559459 -772.72689878 366.3295617 -770.9375 364.0625 C-763.62506116 354.89881082 -755.87754578 346.08171115 -748 337.40234375 C-746.20396471 335.41337498 -744.44046697 333.40186806 -742.6875 331.375 C-738.14604894 326.16995792 -733.4452173 321.11197179 -728.73925781 316.05615234 C-727.55774363 314.78673775 -726.37744713 313.51618892 -725.19824219 312.24462891 C-717.27435996 303.70786119 -709.22301313 295.31205195 -701 287.0625 C-700.22325928 286.28116699 -699.44651855 285.49983398 -698.64624023 284.69482422 C-694.46491498 280.52473546 -690.18945232 276.53734025 -685.71484375 272.68408203 C-683.71427359 270.93814025 -681.84401381 269.09737144 -680 267.1875 C-676.8501997 263.99488688 -673.58780511 261.01588721 -670.1875 258.09375 C-667.64488601 255.87804352 -665.16889802 253.59651408 -662.6875 251.3125 C-658.24749216 247.26228708 -653.68065719 243.43215878 -649.00390625 239.66015625 C-645.50332938 236.7786671 -642.09734225 233.80014638 -638.6875 230.8125 C-632.18383037 225.13395973 -625.50586602 219.73467495 -618.66455078 214.46972656 C-617.07264252 213.24345754 -615.48732658 212.0086448 -613.90234375 210.7734375 C-607.52207258 205.82086292 -601.06158099 200.98303302 -594.5625 196.1875 C-593.82427002 195.64246826 -593.08604004 195.09743652 -592.32543945 194.53588867 C-579.57125204 185.15874213 -566.6183793 176.14065547 -553.4375 167.375 C-552.64597534 166.84803528 -551.85445068 166.32107056 -551.03894043 165.77813721 C-538.84203182 157.66458423 -526.59067031 149.68072303 -514 142.1875 C-513.07429199 141.63481445 -512.14858398 141.08212891 -511.19482422 140.51269531 C-496.34202819 131.67332639 -481.27548463 123.27247133 -466 115.1875 C-464.87996582 114.59324219 -463.75993164 113.99898438 -462.60595703 113.38671875 C-421.81176808 91.811504 -379.60577613 73.4606626 -336.14343262 57.95318604 C-334.01133314 57.19154847 -331.88104788 56.42500387 -329.75097656 55.65771484 C-295.51718393 43.35998098 -260.44394329 33.35702696 -225 25.1875 C-224.30312073 25.02677002 -223.60624146 24.86604004 -222.88824463 24.70043945 C-167.72546364 12.04529259 -111.48534493 4.44339735 -55 1.1875 C-54.16299561 1.1391098 -53.32599121 1.0907196 -52.46362305 1.04086304 C-34.98281038 0.07009112 -17.50198443 -0.01448376 0 0 Z M-295 73.1875 C-295.72940796 73.41653015 -296.45881592 73.6455603 -297.21032715 73.88153076 C-331.29035217 84.6122306 -364.58547151 97.55266821 -397.11047363 112.3293457 C-398.99148225 113.18363155 -400.87405935 114.03438453 -402.75683594 114.88476562 C-454.63927301 138.36860008 -504.28955126 166.59952778 -551 199.1875 C-551.71462402 199.68459473 -552.42924805 200.18168945 -553.16552734 200.69384766 C-569.46302381 212.04636126 -585.51645376 223.74337987 -601 236.1875 C-601.6403418 236.7016748 -602.28068359 237.21584961 -602.94042969 237.74560547 C-611.52235922 244.64972422 -620.01262475 251.65355067 -628.38476562 258.81054688 C-630.04834543 260.22871346 -631.71895876 261.63825317 -633.390625 263.046875 C-640.98620163 269.47094136 -648.31248268 276.13380519 -655.55078125 282.95703125 C-658.30106598 285.54610526 -661.10084089 288.06795053 -663.9375 290.5625 C-670.60929853 296.51545155 -676.83668608 302.93939749 -683.12231445 309.29394531 C-687.00728895 313.21175343 -690.91915571 317.10231262 -694.8359375 320.98828125 C-696.68236349 322.82544865 -698.52871546 324.66269045 -700.375 326.5 C-701.29539062 327.41201172 -702.21578125 328.32402344 -703.1640625 329.26367188 C-707.76002589 333.84322111 -712.2270831 338.46158092 -716.44873047 343.38891602 C-718.84479313 346.16697608 -721.36545662 348.82487153 -723.875 351.5 C-728.41348524 356.37335549 -732.69348797 361.39053977 -736.86328125 366.5859375 C-738.95882494 369.13736729 -741.13963155 371.57076773 -743.375 374 C-747.89653512 378.96820323 -752.01152206 384.19553577 -756.125 389.5 C-758.49012633 392.54824183 -760.90408792 395.55300736 -763.33447266 398.54931641 C-770.25296954 407.09515712 -776.79096455 415.89910514 -783.25634766 424.79101562 C-784.95075219 427.11981357 -786.65254768 429.44305071 -788.35546875 431.765625 C-795.8689147 442.04847511 -803.02916817 452.53042195 -810 463.1875 C-810.45584473 463.88166016 -810.91168945 464.57582031 -811.38134766 465.29101562 C-857.43348012 535.48778897 -894.19350764 610.65360326 -921 690.1875 C-921.21873779 690.83382385 -921.43747559 691.48014771 -921.6628418 692.14605713 C-947.19605863 767.64972878 -962.66797765 846.37023873 -968.81573486 925.80786133 C-968.935163 927.35018137 -969.05658017 928.89234919 -969.18035889 930.43432617 C-972.90577479 976.87897297 -972.72756751 1024.75121732 -969 1071.1875 C-968.87512767 1072.80012749 -968.75029155 1074.41275779 -968.62548828 1076.02539062 C-961.18924543 1170.38155602 -940.19374724 1263.75614971 -895 1378.1875 C-894.72947815 1378.82848633 -894.4589563 1379.46947266 -894.18023682 1380.12988281 C-878.4432134 1417.31109921 -860.24557695 1453.93213415 -839.54443359 1488.59082031 C-838.14446327 1490.9446117 -836.76400749 1493.30806433 -835.39453125 1495.6796875 C-807.90299727 1543.21793949 -775.0375165 1587.85423736 -739.38574219 1629.56347656 C-737.94270908 1631.25464221 -736.50625183 1632.95124619 -735.0703125 1634.6484375 C-728.80684511 1642.03067286 -722.37735192 1649.21973615 -715.75854492 1656.28540039 C-714.46245821 1657.6872901 -713.18085265 1659.10260161 -711.9074707 1660.52514648 C-703.29944042 1670.08351819 -694.19677399 1679.14205791 -685.0925293 1688.2253418 C-682.30466626 1691.0078186 -679.52222258 1693.7956351 -676.74023438 1696.58398438 C-674.94823741 1698.37532092 -673.15593047 1700.16634744 -671.36328125 1701.95703125 C-670.54225418 1702.78008255 -669.72122711 1703.60313385 -668.87532043 1704.4511261 C-664.62053895 1708.68881693 -660.29750479 1712.78051536 -655.73706055 1716.68855286 C-652.98022372 1719.06748703 -650.34275105 1721.57160367 -647.6875 1724.0625 C-642.8189425 1728.59651694 -637.80667836 1732.87242781 -632.6171875 1737.0390625 C-629.98158387 1739.20261772 -627.45576625 1741.4513956 -624.9375 1743.75 C-621.00970282 1747.32072471 -616.97761234 1750.68817202 -612.80859375 1753.97265625 C-610.72718193 1755.61404777 -608.65836472 1757.2666002 -606.59765625 1758.93359375 C-591.79682892 1770.89190423 -576.49098993 1782.14258388 -561 1793.1875 C-560.20045898 1793.75758789 -559.40091797 1794.32767578 -558.57714844 1794.91503906 C-546.26140262 1803.67149034 -533.75841261 1812.08962703 -521 1820.1875 C-520.1745166 1820.71166504 -519.3490332 1821.23583008 -518.49853516 1821.77587891 C-496.85529246 1835.46235664 -474.60006681 1848.15302035 -452 1860.1875 C-450.94071289 1860.75404297 -449.88142578 1861.32058594 -448.79003906 1861.90429688 C-405.21892373 1885.12037858 -359.69126987 1904.21817317 -313 1920.1875 C-312.22398437 1920.45304687 -311.44796875 1920.71859375 -310.6484375 1920.9921875 C-232.39861594 1947.68918544 -150.94680214 1963.81382671 -13 1972.1875 C-11.35789551 1972.22254639 -11.35789551 1972.22254639 -9.68261719 1972.25830078 C82.49778876 1973.95373638 175.96566895 1961.19965937 416 1879.1875 C417.12486816 1878.65930664 418.24973633 1878.13111328 419.40869141 1877.58691406 C444.98192364 1865.53050927 469.85830067 1852.37318336 494.15136719 1837.88623047 C496.01153746 1836.77695169 497.87407234 1835.67162593 499.73925781 1834.57080078 C523.86782227 1820.32092863 547.34468134 1804.68191618 570 1788.1875 C570.75877441 1787.63690918 571.51754883 1787.08631836 572.29931641 1786.51904297 C585.62632663 1776.83128038 598.64926813 1766.83013995 611.3671875 1756.35546875 C613.11729526 1754.91435627 614.87249612 1753.47940597 616.6328125 1752.05078125 C627.20852345 1743.46379728 637.5320128 1734.6113926 647.5703125 1725.40234375 C649.60515415 1723.54743183 651.66321247 1721.73321202 653.75 1719.9375 C666.6439809 1708.68316647 678.75531754 1696.59158512 690.83691406 1684.48095703 C693.52033856 1681.79212042 696.20913792 1679.10874044 698.8984375 1676.42578125 C700.63052943 1674.69302925 702.36231154 1672.95996747 704.09375 1671.2265625 C704.88551636 1670.43682037 705.67728271 1669.64707825 706.49304199 1668.83340454 C710.65014528 1664.65887327 714.65395636 1660.40848338 718.48965454 1655.93595886 C720.87351683 1653.17626893 723.38057137 1650.53432526 725.875 1647.875 C730.31465293 1643.10339105 734.51659141 1638.2058201 738.59765625 1633.12109375 C741.44961575 1629.63845703 744.40842125 1626.25988707 747.375 1622.875 C752.98526322 1616.44670852 758.31468431 1609.84868337 763.52392578 1603.09326172 C765.11871479 1601.03422715 766.72812291 1598.9872111 768.33984375 1596.94140625 C775.95994264 1587.24830929 783.31588294 1577.3990727 790.46044922 1567.35058594 C791.91660121 1565.30467622 793.38117191 1563.26507251 794.84765625 1561.2265625 C808.20594032 1542.57572166 820.97981587 1523.47396714 832.54931641 1503.66064453 C834.08397759 1501.04433389 835.63948203 1498.44127682 837.19921875 1495.83984375 C844.80226352 1483.13125289 852.02954054 1470.25303723 859 1457.1875 C859.46696289 1456.31673828 859.93392578 1455.44597656 860.41503906 1454.54882812 C875.79225356 1425.80337503 889.81728557 1396.42625092 902 1366.1875 C902.26623169 1365.52739929 902.53246338 1364.86729858 902.8067627 1364.18719482 C936.59996273 1280.15814095 958.80636996 1191.92045556 970.81573486 1072.58276367 C970.98933633 1070.3261171 971.17106625 1068.07027896 971.35498047 1065.81445312 C974.89742617 1021.53758563 974.78937819 975.6856377 971.18035889 931.41870117 C970.988554 929.0459027 970.8065964 926.67246588 970.62548828 924.29882812 C963.65820926 834.21032767 944.29264405 745.06755102 893 612.1875 C892.61924316 611.31561035 892.23848633 610.4437207 891.84619141 609.54541016 C885.58081657 595.26123915 878.83006816 581.20863829 872 567.1875 C871.53835449 566.23552734 871.07670898 565.28355469 870.60107422 564.30273438 C864.10579188 550.94234822 857.06456685 537.97362099 849.66162109 525.09619141 C847.99115101 522.17200972 846.34541114 519.23523611 844.70703125 516.29296875 C838.2789174 504.76395298 831.5930566 493.47365281 824.42333984 482.39013672 C823.0511473 480.2666511 821.69016991 478.13640016 820.33203125 476.00390625 C800.77480496 445.39778805 779.4989561 415.90432904 756.39160156 387.87890625 C754.39381881 385.45072399 752.41818576 383.00463585 750.4375 380.5625 C742.85295059 371.30795806 735.03514333 362.25323171 726.9921875 353.39453125 C725.23806619 351.45123999 723.52027306 349.48390552 721.8125 347.5 C712.21002646 336.50361901 702.02009371 326.05139822 691.63061523 315.80224609 C687.7982509 312.00717832 683.99786271 308.18032719 680.19921875 304.3515625 C678.36205135 302.50513651 676.52480955 300.65878454 674.6875 298.8125 C673.77548828 297.89210938 672.86347656 296.97171875 671.92382812 296.0234375 C667.34427889 291.42747411 662.72591908 286.9604169 657.79858398 282.73876953 C655.02052392 280.34270687 652.36262847 277.82204338 649.6875 275.3125 C644.81414451 270.77401476 639.79696023 266.49401203 634.6015625 262.32421875 C632.05013271 260.22867506 629.61673227 258.04786845 627.1875 255.8125 C622.22282442 251.29417538 616.99912603 247.18188064 611.69921875 243.0703125 C608.59963821 240.66508391 605.53824397 238.21615403 602.48583984 235.75146484 C594.80100121 229.55076193 586.98176779 223.55340657 579.03613281 217.69091797 C577.71287947 216.71386832 576.39178674 215.73388327 575.07324219 214.75048828 C505.52425262 162.93278601 427.86691291 121.65501995 253 60.1875 C252.29673584 59.99692017 251.59347168 59.80634033 250.86889648 59.60998535 C173.93282479 38.81970183 94.59338851 28.78103421 15 27.1875 C13.90526367 27.16413574 12.81052734 27.14077148 11.68261719 27.11669922 C-74.12468674 25.53848142 -160.72751266 36.79118242 -295 73.1875 Z " fill="#200E74" transform="translate(999,-0.1875)"/>
<path d="M0 0 C26.73 0 53.46 0 81 0 C83.64 3.96 86.28 7.92 89 12 C90.65982872 14.4428134 92.32300912 16.88164813 94 19.3125 C94.44875488 19.96436279 94.89750977 20.61622559 95.35986328 21.2878418 C100.19643701 28.30338012 105.07344294 35.29081939 109.9440918 42.28271484 C115.32500966 50.01383803 120.65707353 57.77713025 125.96484375 65.55859375 C127.96833897 68.49496043 129.98119641 71.42449293 132.00390625 74.34765625 C148.05160832 97.5462036 148.05160832 97.5462036 148.5625 106.625 C148.60568359 107.33140625 148.64886719 108.0378125 148.69335938 108.765625 C148.79944751 110.51018537 148.90022889 112.25506697 149 114 C149.66 114 150.32 114 151 114 C151 76.38 151 38.76 151 0 C179.05 0 207.1 0 236 0 C236 87.78 236 175.56 236 266 C209.6 266 183.2 266 156 266 C147.40347792 253.64249951 138.81937053 241.29517632 130.3359375 228.86328125 C126.63133249 223.44877297 122.87782869 218.06864261 119.125 212.6875 C113.69635763 204.89729666 108.29484124 197.08943688 102.9375 189.25 C102.34275879 188.38205811 101.74801758 187.51411621 101.13525391 186.61987305 C98.08975357 182.15288179 95.09510912 177.6551262 92.15625 173.1171875 C91.58583984 172.23659668 91.01542969 171.35600586 90.42773438 170.44873047 C86.84622951 164.30603317 86.71022306 157.95464652 87 151 C86.34 151 85.68 151 85 151 C85 188.62 85 226.24 85 265 C56.95 265 28.9 265 0 265 C0 177.55 0 90.1 0 0 Z " fill="#EBE5D5" transform="translate(379,1112)"/>
<path d="M0 0 C0 46.2 0 92.4 0 140 C1.32 140 2.64 140 4 140 C4.08902588 139.35337402 4.17805176 138.70674805 4.26977539 138.04052734 C5.26145924 133.91132954 6.95377615 130.22020923 8.68359375 126.3515625 C9.0551358 125.50967377 9.42667786 124.66778503 9.80947876 123.80038452 C11.01418487 121.07317909 12.22576245 118.34908755 13.4375 115.625 C14.26215475 113.76194768 15.08629141 111.89866594 15.90991211 110.03515625 C17.13526972 107.26281937 18.36095427 104.4906339 19.58857727 101.71929932 C23.20030539 93.56362608 26.75368825 85.38364642 30.26928711 77.18603516 C30.80307983 75.94926025 30.80307983 75.94926025 31.34765625 74.6875 C31.64679932 73.99011719 31.94594238 73.29273438 32.25415039 72.57421875 C33 71 33 71 34 70 C36.83040672 69.90479094 39.63634993 69.87446369 42.46704102 69.88647461 C43.79862244 69.88625557 43.79862244 69.88625557 45.15710449 69.8860321 C48.10606284 69.88673157 51.05495887 69.89452552 54.00390625 69.90234375 C56.04271917 69.90420781 58.08153254 69.90563177 60.12034607 69.90663147 C65.49784574 69.91045759 70.87531858 69.92028868 76.25280762 69.93133545 C81.73559201 69.94154755 87.21838072 69.94612866 92.70117188 69.95117188 C103.46745973 69.96191086 114.23372764 69.97898841 125 70 C124.2667673 74.02842073 123.09596066 77.14660582 121.2265625 80.8046875 C120.65542725 81.93205322 120.08429199 83.05941895 119.49584961 84.22094727 C119.19145966 84.81529572 118.8870697 85.40964417 118.57345581 86.02200317 C116.94580687 89.20193869 115.33930517 92.39254838 113.73046875 95.58203125 C113.40625443 96.22363693 113.0820401 96.86524261 112.7480011 97.52629089 C109.63445642 103.69857634 106.64941524 109.92679883 103.70458984 116.1809082 C100.89362435 122.11974681 98.00476295 128.01279884 95.06202698 133.88734436 C93.10831399 137.78993468 91.1664815 141.69839512 89.22463989 145.60690308 C88.24552575 147.56932574 87.26076149 149.52894003 86.27023315 151.48562622 C84.8687629 154.25556424 83.48733492 157.03471475 82.109375 159.81640625 C81.67977982 160.65300781 81.25018463 161.48960937 80.80757141 162.3515625 C78.54410365 166.9737789 77.30916745 169.88688705 79 175 C79.87904036 177.17224067 80.83734618 179.3132693 81.8515625 181.42578125 C82.28733109 182.34311287 82.28733109 182.34311287 82.73190308 183.27897644 C83.36048171 184.6005903 83.99235998 185.92063887 84.62719727 187.23925781 C86.35304731 190.82524229 88.05375412 194.42315427 89.7578125 198.01953125 C90.11107605 198.76345123 90.4643396 199.50737122 90.82830811 200.27383423 C94.47807722 207.974246 97.9941533 215.73329236 101.5 223.5 C107.25014391 236.22198655 113.12271093 248.88260231 119.078125 261.50976562 C124.06465918 272.08533353 124.06465918 272.08533353 126.42578125 277.28125 C126.890448 278.3031543 126.890448 278.3031543 127.36450195 279.34570312 C128 281 128 281 128 283 C97.64 283 67.28 283 36 283 C33.133125 275.595625 30.26625 268.19125 27.3125 260.5625 C20.12566407 241.99704182 20.12566407 241.99704182 12.84375 223.46875 C12.38236885 222.30326881 12.38236885 222.30326881 11.91166687 221.11424255 C10.49941363 217.54942169 9.08258002 213.98650713 7.65942383 210.42602539 C7.16480182 209.18118194 6.67024953 207.93631077 6.17578125 206.69140625 C5.75208252 205.63123291 5.32838379 204.57105957 4.8918457 203.47875977 C4 201 4 201 4 199 C3.01 199 2.02 199 1 199 C1 226.72 1 254.44 1 283 C-27.38 283 -55.76 283 -85 283 C-85 191.59 -85 100.18 -85 6 C-50.92288947 2.47478167 -50.92288947 2.47478167 -37.60131836 1.49194336 C-35.13658068 1.30871466 -32.67284986 1.11449468 -30.20898438 0.91992188 C-28.5703615 0.79622414 -26.93169117 0.67315314 -25.29296875 0.55078125 C-24.59157272 0.49457108 -23.8901767 0.4383609 -23.16752625 0.38044739 C-15.4067676 -0.17333506 -7.85063394 0 0 0 Z " fill="#EAE4D5" transform="translate(870,1095)"/>
<path d="M0 0 C0.82242187 0.46148438 1.64484375 0.92296875 2.4921875 1.3984375 C16.33044417 9.83185318 22.35971659 23.23788242 26.23828125 38.359375 C30.56789473 59.05270712 29.90623746 82.81793597 18.625 101.24609375 C17.17427792 103.26843186 15.64920336 105.13636121 14 107 C13.40316406 107.67804688 12.80632812 108.35609375 12.19140625 109.0546875 C-2.80736623 125.04935433 -25.32586367 128.91027873 -46.15234375 131.62548828 C-48.6074917 131.94837897 -51.05265911 132.30720883 -53.5 132.68359375 C-68.20801728 134.78942033 -83.1819387 134.16945686 -98 134 C-98 138.95 -98 143.9 -98 149 C-63.36063042 149.60161898 -29.15618364 149.43316677 4 138 C5.32 138 6.64 138 8 138 C10.44211934 149.65275216 12.58072488 161.2892601 14.2734375 173.07421875 C15.09954704 178.7944015 16.07379788 184.48829112 17.08618164 190.17822266 C17.71970223 193.84130941 18.05634654 197.28872145 18 201 C-34.81252059 212.84025509 -100.6284721 225.89308115 -149.9140625 196.140625 C-171.29111379 181.31198689 -182.29266492 158.21285429 -187.3125 133.1875 C-187.57086537 131.46245448 -187.79996413 129.73277822 -188 128 C-188.10957031 127.06800781 -188.21914062 126.13601563 -188.33203125 125.17578125 C-191.69679151 88.70178005 -189.96803579 48.4780349 -166.3359375 18.67578125 C-147.28985822 -3.14121592 -120.16569551 -10.5677504 -92.265625 -12.79492188 C-63.1305644 -14.6245758 -26.02999089 -15.15178574 0 0 Z " fill="#EBE5D5" transform="translate(1400,1171)"/>
<path d="M0 0 C68.97 0 137.94 0 209 0 C209 22.44 209 44.88 209 68 C188.54 68 168.08 68 147 68 C147 133.34 147 198.68 147 266 C118.95 266 90.9 266 62 266 C62 200.99 62 135.98 62 69 C41.54 69 21.08 69 0 69 C0 46.23 0 23.46 0 0 Z " fill="#EAE4D5" transform="translate(1004,1111)"/>
<path d="M0 0 C22.54865004 18.22563274 40.89152638 42.61110256 48.8125 70.8125 C49.15087891 71.96153809 49.15087891 71.96153809 49.49609375 73.13378906 C59.45013437 107.98638263 54.44413164 146.25123469 37.27709961 178.05224609 C33.69717405 184.34028888 29.44253018 190.16783012 25.24145508 196.04956055 C15.42616912 209.86177257 6.97305881 224.46058473 -0.1875 239.8125 C-0.53296875 240.54742676 -0.8784375 241.28235352 -1.234375 242.03955078 C-7.48227752 255.41538195 -11.59348684 268.43644736 -15.1875 282.8125 C-29.0475 282.8125 -42.9075 282.8125 -57.1875 282.8125 C-55.18883896 274.81785582 -53.13068421 266.89990687 -50.8125 259 C-50.50650879 257.95247559 -50.20051758 256.90495117 -49.88525391 255.82568359 C-47.86360392 248.96012213 -45.66970424 242.18362153 -43.359375 235.41015625 C-41.82265677 230.69243129 -40.50951525 225.92728124 -39.20263672 221.1418457 C-35.28040912 206.79012719 -31.17181655 192.50680157 -26.36328125 178.42578125 C-24.8000887 173.62195033 -23.46842082 168.76740092 -22.14331055 163.89355469 C-19.66675332 154.81447052 -16.9225138 145.81642858 -14.1875 136.8125 C-13.31609375 136.65394531 -12.4446875 136.49539063 -11.546875 136.33203125 C1.12532645 133.84970607 13.9438642 130.37995143 22.1875 119.75 C27.39520177 110.33607757 27.17835066 99.48336938 24.3125 89.25 C19.06630013 74.361137 10.42931733 58.18361651 -4.15234375 50.8203125 C-7.78222362 49.3108575 -10.82840366 48.74464192 -14.75 48.625 C-18.70786383 48.29234935 -20.2382608 47.1878996 -22.8125 44.1875 C-23.94826384 42.73753392 -25.07356988 41.27930633 -26.1875 39.8125 C-35.43788357 28.8714458 -49.91778905 20.28826868 -64.22949219 18.56689453 C-77.46771837 17.56701909 -88.09285241 20.76193415 -99.53125 27.20703125 C-103.82826366 29.53136399 -106.29514203 30.25349624 -111.1875 28.8125 C-112.239375 28.461875 -113.29125 28.11125 -114.375 27.75 C-124.37901336 25.28999672 -132.15939835 27.01355116 -141.1875 31.8125 C-148.41234479 36.25759515 -155.57119326 42.34916145 -159.375 50 C-162.21036468 54.91399351 -166.66568015 55.86256456 -171.82421875 57.59765625 C-176.71392112 59.36385536 -180.88136264 61.93635572 -185.1875 64.8125 C-186.115625 65.410625 -187.04375 66.00875 -188 66.625 C-192.86657893 71.49157893 -196.32243346 78.20432501 -196.625 85.0625 C-196.60592067 92.95180413 -193.54725321 98.82309651 -190.1875 105.8125 C-188.96302519 109.48592444 -189.90202103 110.46624656 -191.44482422 113.82763672 C-194.52179779 122.05110651 -192.97026637 133.14541694 -189.875 141.0625 C-181.60344278 157.85862679 -167.96431395 170.74356445 -151.1875 178.8125 C-150.45905884 178.98115067 -149.73061768 179.14980133 -148.98010254 179.32356262 C-142.90491358 180.73618243 -142.90491358 180.73618243 -140.99403381 183.60302734 C-140.13912902 185.96437501 -139.54395295 188.28563388 -139.00390625 190.73828125 C-138.53247074 192.55968172 -138.0599461 194.38080058 -137.58642578 196.20166016 C-137.35739563 197.13463928 -137.12836548 198.06761841 -136.89239502 199.02886963 C-135.79295075 203.37057497 -134.46851424 207.63804179 -133.15234375 211.91796875 C-132.64655496 213.59793701 -132.14199992 215.27827722 -131.63867188 216.95898438 C-130.88005335 219.48567154 -130.12129854 222.01231727 -129.36206055 224.53881836 C-126.5138044 234.01750107 -123.68418647 243.50097 -120.90106201 252.99899292 C-119.75340673 256.90923427 -118.58529057 260.81210374 -117.38671875 264.70703125 C-117.13212891 265.53654297 -116.87753906 266.36605469 -116.61523438 267.22070312 C-116.1057717 268.87544864 -115.59253236 270.52903457 -115.07617188 272.18164062 C-114.82802734 272.99439453 -114.57988281 273.80714844 -114.32421875 274.64453125 C-113.99490356 275.70764526 -113.99490356 275.70764526 -113.65893555 276.79223633 C-113.1875 278.8125 -113.1875 278.8125 -113.1875 282.8125 C-126.7175 282.8125 -140.2475 282.8125 -154.1875 282.8125 C-155.84507861 277.83976418 -157.42096916 273.07023673 -158.76977539 268.04614258 C-166.32519716 240.43129692 -181.15555058 215.48125133 -197.66015625 192.3359375 C-219.41767438 161.65895654 -227.83127455 124.65067587 -222.36328125 87.38330078 C-221.77885636 84.152468 -221.01268555 80.9896314 -220.1875 77.8125 C-220.02652832 77.1436377 -219.86555664 76.47477539 -219.69970703 75.78564453 C-214.57142939 54.65674656 -204.14471723 36.35340057 -190.1875 19.8125 C-189.17429687 18.59626953 -189.17429687 18.59626953 -188.140625 17.35546875 C-141.44730732 -36.75083915 -55.96878112 -43.31144603 0 0 Z " fill="#EAE4D5" transform="translate(1099.1875,650.1875)"/>
<path d="M0 0 C3.00075801 0.02383114 6.00063438 0.02049785 9.00146484 0.01391602 C22.68663839 0.03258197 35.7130924 0.72780171 48.85693359 4.89868164 C49.58783203 5.11975586 50.31873047 5.34083008 51.07177734 5.56860352 C56.2241583 7.14479399 56.2241583 7.14479399 58.60693359 8.33618164 C55.68627404 27.7609155 52.49822108 47.07743664 48.60693359 66.33618164 C43.44747655 65.91089017 38.40749269 65.33570562 33.33349609 64.29321289 C26.88051564 63.07320691 20.53335706 63.005402 13.98193359 63.02368164 C12.81919922 63.00756836 11.65646484 62.99145508 10.45849609 62.97485352 C1.13564541 62.96958041 -7.04475162 64.18410414 -14.39306641 70.33618164 C-18.05461897 75.67107137 -18.98128229 79.4458891 -18.93896484 85.84179688 C-18.95447136 87.07228004 -18.95447136 87.07228004 -18.97029114 88.32762146 C-18.99959534 91.01687608 -19.00121566 93.70537403 -19.00244141 96.39477539 C-19.01743145 98.26808599 -19.03416032 100.1413834 -19.05255127 102.0146637 C-19.09614451 106.92846298 -19.11620608 111.842084 -19.13128662 116.75604248 C-19.15088666 121.77700303 -19.19285342 126.79777187 -19.23291016 131.81860352 C-19.30812531 141.65773698 -19.35846942 151.49682735 -19.39306641 161.33618164 C-18.78883347 161.33056213 -18.18460052 161.32494263 -17.5620575 161.31915283 C-16.76209854 161.3147821 -15.96213959 161.31041138 -15.13793945 161.3059082 C-13.95315254 161.29747894 -13.95315254 161.29747894 -12.74443054 161.28887939 C-9.96254242 161.34484246 -7.25065382 161.71257992 -4.49707031 162.09594727 C13.01899155 164.09592462 31.85059058 162.36593105 48.35693359 156.10571289 C50.60693359 155.33618164 50.60693359 155.33618164 53.60693359 155.33618164 C54.97883777 166.39506773 56.12928209 177.45361356 57.03955078 188.56005859 C57.23444458 190.92920536 57.43608872 193.29771752 57.63818359 195.66625977 C57.76618748 197.20333591 57.89380606 198.74044419 58.02099609 200.27758789 C58.08034332 200.97042374 58.13969055 201.66325958 58.20083618 202.37709045 C58.57734953 207.04969675 58.65598194 211.65337208 58.60693359 216.33618164 C51.88820289 219.17465663 45.09934447 221.02791816 37.98193359 222.52368164 C37.19520264 222.69029297 36.40847168 222.8569043 35.59790039 223.02856445 C25.13831625 225.15209441 14.82455631 225.61160343 4.16943359 225.64868164 C3.08653046 225.65260925 3.08653046 225.65260925 1.98175049 225.65661621 C-12.07974386 225.66203803 -25.60472519 224.17078923 -39.39306641 221.33618164 C-40.53195312 221.11188477 -40.53195312 221.11188477 -41.69384766 220.88305664 C-61.49741793 216.85521184 -80.44596846 205.61518465 -92.26416016 189.04467773 C-112.90148147 157.81198428 -115.86597395 113.62859123 -108.88916016 77.72827148 C-103.89685907 53.65614251 -93.20660815 30.54641918 -72.01806641 16.52368164 C-49.4344692 3.1146708 -25.82102555 -0.21882225 0 0 Z " fill="#EBE4D5" transform="translate(1562.39306640625,1158.663818359375)"/>
<path d="M0 0 C1.3921875 0.72703125 1.3921875 0.72703125 2.8125 1.46875 C10.62886468 5.99868862 17.09630243 12.21023263 23 19 C23 19.66 23 20.32 23 21 C21.2365625 21.804375 21.2365625 21.804375 19.4375 22.625 C12.6238632 26.0499077 7.88681614 30.47014889 4 37 C-4.7506786 36.52269026 -11.04237234 33.49307764 -16.9375 26.9375 C-19.04716774 24.41886594 -20.62423002 21.98415807 -22 19 C-23.32 19.33 -24.64 19.66 -26 20 C-25.19883863 26.80987165 -21.18842937 31.33716849 -16.0703125 35.546875 C-11.45937301 38.78323253 -6.3354251 41.22152497 -1 43 C-0.67 46.3 -0.34 49.6 0 53 C1.32 52.67 2.64 52.34 4 52 C4.20625 50.845 4.4125 49.69 4.625 48.5 C5.91536702 43.38364967 8.57366802 39.93043599 12 36 C12.55042969 35.36707031 13.10085938 34.73414063 13.66796875 34.08203125 C19.13835014 28.21107273 24.34686704 24.84909823 32.5 24.5 C40.29995164 24.81286113 46.64880837 28.33981568 52 34 C56.62888203 39.57444938 60.05558574 45.75022607 63.3125 52.1875 C63.65007324 52.85241455 63.98764648 53.5173291 64.33544922 54.20239258 C68.6519332 62.9914701 70.93568735 72.08261984 68.23046875 81.75 C64.62763023 90.10145607 58.57285043 94.11302528 50.35546875 97.50390625 C40.89879796 100.90289384 32.01471041 101.73174883 22 102 C21.01 94.08 21.01 94.08 20 86 C22.475 84.2675 22.475 84.2675 25 82.5 C35.10721657 75.17523863 35.10721657 75.17523863 42 65 C41.79356801 62.74671588 41.79356801 62.74671588 41 61 C38.52090162 61.37530061 37.30213742 61.65871238 35.61328125 63.56640625 C35.18402344 64.22511719 34.75476562 64.88382813 34.3125 65.5625 C29.93702317 71.73703075 23.94012929 77.78758629 17 81 C14.90625 80.33984375 14.90625 80.33984375 13 79 C12.4328125 78.60941406 11.865625 78.21882812 11.28125 77.81640625 C10.6934375 77.40261719 10.105625 76.98882813 9.5 76.5625 C-0.67867984 70.24985085 -12.41482232 70.34447308 -24 71 C-25.485 71.495 -25.485 71.495 -27 72 C-31.27483348 72.65766669 -35.26034027 73.04707821 -39.0703125 70.75390625 C-44.65285225 65.52178566 -47.77221077 59.73798397 -48.23828125 52.08984375 C-48.28756416 48.38795599 -48.17540565 44.69813571 -48 41 C-49.32 41 -50.64 41 -52 41 C-52.66 42.65 -53.32 44.3 -54 46 C-61.07939323 43.52783094 -67.07137446 38.50756028 -70.4375 31.75 C-70.97000082 30.50492561 -71.49117147 29.25493461 -72 28 C-72.65729376 26.66202125 -73.32161223 25.3274081 -74 24 C-75.32 24.33 -76.64 24.66 -78 25 C-76.15935917 35.70228275 -70.53012465 42.54406979 -62 49 C-60.53321086 49.83463759 -59.05507615 50.64990447 -57.5625 51.4375 C-55.09289902 52.86700955 -54.17513197 53.58631379 -53.05078125 56.2421875 C-52.5981198 57.96387093 -52.1751069 59.69360774 -51.78125 61.4296875 C-50.68850209 65.02482813 -48.6950043 67.4604302 -46.3046875 70.30859375 C-45 72 -45 72 -44 75 C-46.31059754 75.79759757 -48.62325433 76.58811227 -50.9375 77.375 C-51.57751953 77.59671875 -52.21753906 77.8184375 -52.87695312 78.046875 C-61.81425514 81.07043986 -70.04966254 82.36258169 -79.5 82.375 C-80.48097656 82.39949219 -81.46195313 82.42398438 -82.47265625 82.44921875 C-89.09347316 82.47566675 -94.2791099 81.43666123 -100 78 C-100.99 77.01 -100.99 77.01 -102 76 C-104.58354218 75.83312552 -104.58354218 75.83312552 -107 76 C-107 77.32 -107 78.64 -107 80 C-100.27049642 86.47615756 -90.83001922 87.65783708 -82 89 C-79.23571785 96.34193338 -78.51411988 104.15021969 -81.375 111.5625 C-87.44293011 117.19700653 -94.9735446 118.48216417 -103 119 C-103 120.32 -103 121.64 -103 123 C-94.70985243 123.57726366 -85.96696573 123.17728685 -79.3046875 117.57421875 C-77.3419984 115.30008497 -76.00038259 113.00088599 -74.8125 110.25 C-71.84199226 106.56247315 -67.53310325 106.62713253 -63 106 C-59.55600659 105.72662059 -56.14136222 105.66693173 -52.6875 105.6875 C-51.7797583 105.68878906 -50.8720166 105.69007813 -49.93676758 105.69140625 C-42.62188759 105.79533848 -36.00867901 106.81547667 -29 109 C-29.21716506 106.54719769 -29.21716506 106.54719769 -30 104 C-31.5827866 102.78720919 -31.5827866 102.78720919 -33.625 102.25 C-34.27726563 102.02828125 -34.92953125 101.8065625 -35.6015625 101.578125 C-41.46772438 100.16413158 -47.24817695 99.80703821 -53.25 99.8125 C-53.98855225 99.81185547 -54.72710449 99.81121094 -55.48803711 99.81054688 C-61.4757004 99.86791371 -67.1710493 100.58997305 -73 102 C-75.28571429 93.57142857 -75.28571429 93.57142857 -75 89 C-70.14523202 87.53227945 -65.38421087 86.47827239 -60.375 85.625 C-55.28373095 84.72239274 -50.42601909 83.60924813 -45.5 82 C-30.26590483 77.12208775 -10.17485149 72.92506924 5 80 C9.55159852 82.94068218 13.78603313 86.57893887 15.59375 91.859375 C17.07816881 99.68112029 17.11325597 107.19144507 12.67578125 114.00390625 C1.23349741 127.6332933 -16.91101385 130.15117206 -33.65182495 131.81939697 C-41.24705567 132.40356197 -48.88909472 132.19987989 -56.5 132.125 C-58.30598454 132.11493609 -60.1119746 132.10581635 -61.91796875 132.09765625 C-66.27878587 132.07594514 -70.63932923 132.04160945 -75 132 C-74.01 134.475 -74.01 134.475 -73 137 C-70.03 137.33 -67.06 137.66 -64 138 C-66.71609983 140.71609983 -68.10889195 141.68943092 -71.5 143.125 C-72.66015625 143.62386719 -72.66015625 143.62386719 -73.84375 144.1328125 C-81.67792693 147.28351409 -92.30901427 147.43030848 -100.3125 144.5 C-106.04861365 141.77679453 -111.03776335 137.92077957 -116 134 C-116.6496875 133.505 -117.299375 133.01 -117.96875 132.5 C-127.31425978 125.02359217 -136.57319742 112.89133265 -139 101 C-139.88456987 91.53233813 -138.82720122 83.84272212 -132.8359375 76.26171875 C-130.61995704 73.76783846 -128.35434731 71.36301894 -126 69 C-125.45472656 68.41089844 -124.90945313 67.82179688 -124.34765625 67.21484375 C-123 66 -123 66 -121 66 C-121.33 64.35 -121.66 62.7 -122 61 C-127.28534706 61.32032406 -130.43220064 64.38726614 -134 68 C-134.66 68.99 -135.32 69.98 -136 71 C-139 70 -139 70 -140.6875 67.25 C-142.83841979 61.7239667 -142.65441652 55.81452835 -142 50 C-138.0940638 41.21164355 -128.679112 35.42633785 -120 32 C-118.34211719 31.6254156 -116.67646674 31.27990741 -115 31 C-114.88785156 31.60585938 -114.77570312 32.21171875 -114.66015625 32.8359375 C-112.51133249 41.96492733 -107.43604751 48.27869909 -99.54296875 53.30078125 C-88.47777195 60.1171625 -88.47777195 60.1171625 -76 62 C-76 60.68 -76 59.36 -76 58 C-77.45019531 57.47212891 -77.45019531 57.47212891 -78.9296875 56.93359375 C-90.24087535 52.69535616 -102.28828309 47.42343382 -108 36 C-108.83126182 30.43370247 -108.52846164 26.09691402 -105.4375 21.3125 C-99.2478694 13.11737137 -91.93059392 6.31019797 -82 3 C-71.90780385 1.93837084 -64.44070598 3.29327092 -56 9 C-53.53104963 11.06547872 -51.20042466 13.17229778 -48.9375 15.4609375 C-46.8903852 17.41466402 -46.8903852 17.41466402 -43 17 C-43.47620289 12.62346871 -44.66899889 10.93461995 -48.0625 8.1875 C-48.79597656 7.58292969 -49.52945313 6.97835937 -50.28515625 6.35546875 C-50.85105469 5.90816406 -51.41695312 5.46085938 -52 5 C-49.66929497 2.39598754 -47.31577614 0.97040336 -44.1875 -0.5625 C-43.35605469 -0.97628906 -42.52460937 -1.39007812 -41.66796875 -1.81640625 C-28.43549458 -7.68674252 -12.71925255 -6.77438451 0 0 Z " fill="#E9E3D4" transform="translate(1051,680)"/>
<path d="M0 0 C0 69.96 0 139.92 0 212 C-28.05 212 -56.1 212 -85 212 C-85 145.34 -85 78.68 -85 10 C-5 0 -5 0 0 0 Z " fill="#EBE5D5" transform="translate(743,1165)"/>
<path d="M0 0 C1.65 0 3.3 0 5 0 C3.78974056 7.84413198 1.83243976 15.17038136 -0.6875 22.6875 C-3.47459825 31.19190226 -6.14563809 39.71315002 -8.625 48.3125 C-8.9135083 49.31224854 -9.2020166 50.31199707 -9.49926758 51.34204102 C-10.06549481 53.30527283 -10.63150002 55.2685687 -11.19726562 57.23193359 C-12.3975076 61.37072419 -13.63251115 65.49872567 -14.875 69.625 C-15.22800171 70.79796631 -15.22800171 70.79796631 -15.58813477 71.99462891 C-16.09839924 73.6890352 -16.60891006 75.38336732 -17.11962891 77.07763672 C-18.93782609 83.11308326 -20.75038004 89.15022652 -22.5625 95.1875 C-22.75837708 95.84005768 -22.95425415 96.49261536 -23.15606689 97.16494751 C-26.61243421 108.6826473 -30.0402364 120.20815236 -33.375 131.76171875 C-33.60477539 132.55344482 -33.83455078 133.3451709 -34.07128906 134.16088867 C-34.51351815 135.68498829 -34.9531045 137.20985798 -35.38964844 138.7355957 C-36.8874227 143.8874227 -36.8874227 143.8874227 -38 145 C-41.10251201 145.08874135 -44.1826812 145.11518455 -47.28515625 145.09765625 C-48.21597519 145.0962413 -49.14679413 145.09482635 -50.1058197 145.09336853 C-53.09141191 145.08775172 -56.07693029 145.0751964 -59.0625 145.0625 C-61.08137913 145.05748716 -63.10025943 145.05292388 -65.11914062 145.04882812 C-70.07945572 145.03777683 -75.03971532 145.02050095 -80 145 C-80.5859375 143.046875 -81.171875 141.09375 -81.7578125 139.140625 C-82.32024658 137.26588501 -82.32024658 137.26588501 -82.89404297 135.35327148 C-83.72387406 132.58718174 -84.55361713 129.82106561 -85.38330078 127.05493164 C-87.96284316 118.45452616 -87.96284316 118.45452616 -90.546875 109.85546875 C-94.43711066 96.91807512 -98.28390778 83.96779511 -102.13037109 71.01733398 C-102.36111328 70.2407695 -102.59185547 69.46420502 -102.82958984 68.66410828 C-103.27932999 67.14970613 -103.72856054 65.63515255 -104.17724609 64.12043762 C-105.59103028 59.35251916 -107.03684815 54.59566506 -108.53051758 49.85205078 C-109 48 -109 48 -109 45 C-108.12859375 44.85304688 -107.2571875 44.70609375 -106.359375 44.5546875 C-97.78613293 42.94024581 -87.87759851 40.95182804 -81.50805664 34.48535156 C-77.99544807 30.92894751 -75.6030931 29.60352147 -70.55078125 29.3359375 C-68.47133754 29.32591769 -66.39167467 29.34008256 -64.3125 29.375 C-45.63871674 29.15080524 -23.74463329 26.71910791 -9 14 C-5.15471854 9.78286715 -2.34336657 5.20748126 0 0 Z " fill="#EBE5D5" transform="translate(1073,788)"/>
<path d="M0 0 C6.72677015 6.55465662 9.09280748 14.12462303 9.29541016 23.30493164 C9.3010498 24.0499292 9.30668945 24.79492676 9.3125 25.5625 C9.31813965 26.27075928 9.3237793 26.97901855 9.32958984 27.70874023 C9.20208186 37.03735418 6.90752032 46.09247968 0.1875 52.8125 C-10.95473901 60.45913462 -23.33835591 60.3495273 -36.33056641 60.31567383 C-38.86274367 60.31251529 -41.39374776 60.33603235 -43.92578125 60.36132812 C-56.04739334 60.40918559 -68.17372993 60.01804604 -78 52 C-86.3821235 43.16478875 -86.45492558 33.21512915 -86.27734375 21.7578125 C-85.95290711 13.54843559 -83.43705313 6.39429077 -77.66796875 0.42578125 C-60.91798152 -13.89212352 -17.48662553 -12.82352539 0 0 Z " fill="#EAE4D5" transform="translate(739,1098)"/>
<path d="M0 0 C1.73284744 -0.01073296 1.73284744 -0.01073296 3.5007019 -0.02168274 C4.774487 -0.02437164 6.04827209 -0.02706055 7.36065674 -0.02983093 C8.71080704 -0.03609497 10.06095562 -0.04274172 11.41110229 -0.04974365 C15.08481728 -0.06716032 18.75851924 -0.07770751 22.43226528 -0.08594918 C24.72754327 -0.0910986 27.02281721 -0.0971744 29.31809235 -0.10346031 C36.49953338 -0.12251543 43.68096411 -0.13674511 50.86242557 -0.14507228 C59.15190032 -0.15484281 67.44110792 -0.18115596 75.73048854 -0.22157317 C82.13736598 -0.25173936 88.54416686 -0.26654167 94.95111394 -0.26985329 C98.77771809 -0.27220349 102.60403693 -0.28115924 106.43056488 -0.30631447 C110.03231343 -0.32960891 113.63358914 -0.33382326 117.23539352 -0.32355309 C119.18326618 -0.32282227 121.1311149 -0.34190459 123.07888794 -0.36161804 C133.83071467 -0.29761631 133.83071467 -0.29761631 138.56085205 4.14717102 C140.42441284 7.8742926 140.1263518 12.08924422 139.56085205 16.14717102 C137.68668665 19.7724871 135.48720288 21.83838741 131.56085205 23.14717102 C129.73504887 23.24613186 127.90584348 23.28646791 126.07737732 23.29434204 C124.93759933 23.30149734 123.79782135 23.30865265 122.62350464 23.31602478 C120.74627213 23.32005814 120.74627213 23.32005814 118.83111572 23.32417297 C117.5138298 23.33074417 116.19654388 23.33731537 114.83934021 23.34408569 C110.46917943 23.36510926 106.09901836 23.37548587 101.7288208 23.38545227 C100.22357986 23.38950034 98.7183391 23.39361728 97.21309853 23.39780235 C90.14165179 23.41684958 83.07021546 23.43108209 75.998748 23.43941432 C67.83889263 23.4491881 59.67930842 23.475513 51.51954859 23.51591522 C45.2103147 23.54608171 38.90115853 23.56088366 32.59185392 23.56419533 C28.82450755 23.56654506 25.05745105 23.57549513 21.29018211 23.60065651 C17.74505162 23.6239522 14.20040153 23.62816484 10.65521431 23.61789513 C8.73836274 23.61716444 6.82153548 23.63624483 4.90478516 23.65596008 C-1.47768511 23.61736292 -5.63714325 23.5548855 -10.43914795 19.14717102 C-12.76946649 16.18131106 -12.91034236 12.91094459 -12.8336792 9.18232727 C-12.12562612 5.52989505 -10.06380162 3.70933294 -7.43914795 1.14717102 C-4.83275287 -0.15602652 -2.91993702 0.01237898 0 0 Z " fill="#E8E2D4" transform="translate(950.4391479492188,968.8528289794922)"/>
<path d="M0 0 C1.37207821 -0.00457784 2.74414915 -0.01217981 4.11619568 -0.02256775 C7.83147127 -0.04162116 11.54528466 -0.01699851 15.26040959 0.01667047 C19.15247361 0.04561742 23.04448352 0.0379208 26.93663025 0.03520203 C33.47101996 0.03619117 40.00484137 0.06459273 46.5390625 0.11035156 C54.08962047 0.16298969 61.63947072 0.17702255 69.19019228 0.1693185 C76.46035768 0.16239941 83.73028403 0.17827108 91.00039482 0.20607567 C94.09160774 0.21776935 97.18270897 0.22232295 100.27394295 0.22127724 C103.91445617 0.22140324 107.55432 0.24176427 111.19465065 0.27766991 C113.16524438 0.29253565 115.13595497 0.28791749 117.1065979 0.28271484 C118.87087379 0.30613701 118.87087379 0.30613701 120.67079163 0.33003235 C122.20080102 0.33813919 122.20080102 0.33813919 123.7617197 0.3464098 C127.28585303 0.9939909 128.97831508 2.41065518 131.54663086 4.8581543 C133.39525774 8.55540805 133.0225018 12.82276871 132.54663086 16.8581543 C130.75016232 19.79238625 129.60252376 21.33020785 126.54663086 22.8581543 C124.70826212 22.9623001 122.86611516 23.00203539 121.02482605 23.01205444 C119.85132095 23.02065491 118.67781586 23.02925537 117.46875 23.03811646 C116.17469238 23.0423764 114.88063477 23.04663635 113.54736328 23.05102539 C112.17588594 23.05892577 110.80441068 23.06719468 109.43293762 23.07580566 C104.9226785 23.10203238 100.41241006 23.11733355 95.90209961 23.1315918 C94.35009569 23.13695114 92.79809183 23.14232865 91.24608803 23.14772415 C84.79080987 23.16935349 78.33553422 23.18809071 71.880229 23.19934654 C62.625448 23.21558926 53.37108663 23.24877373 44.11646384 23.30574739 C37.61109126 23.34443221 31.10583098 23.36397745 24.60034639 23.36926711 C20.71390024 23.37292252 16.82790157 23.38496308 12.94157982 23.41736984 C9.28477419 23.44742557 5.62868735 23.45377187 1.97178459 23.44198608 C-0.00851284 23.44165985 -1.98876575 23.46614211 -3.96890259 23.49136353 C-13.64821144 23.42324207 -13.64821144 23.42324207 -16.72758484 20.50918579 C-19.50911806 16.23638522 -20.0418154 12.90197939 -19.45336914 7.8581543 C-15.42694372 -0.66377323 -8.44156715 -0.12456274 0 0 Z " fill="#EBE5D5" transform="translate(957.453369140625,939.141845703125)"/>
<path d="M0 0 C1.28175613 -0.00953201 2.56351227 -0.01906403 3.8841095 -0.02888489 C5.28561429 -0.0286234 6.6871191 -0.02768608 8.08862305 -0.02612305 C9.52727889 -0.03001096 10.96593358 -0.03434582 12.40458679 -0.03910828 C15.42161781 -0.04657165 18.43853183 -0.04627919 21.45556641 -0.04101562 C25.31244719 -0.03523213 29.16884601 -0.05212377 33.02564716 -0.0753603 C35.99831419 -0.09013258 38.97086623 -0.09096442 41.94356346 -0.08785057 C43.36485941 -0.08836241 44.78616202 -0.09357425 46.20742226 -0.10366249 C48.20074389 -0.11607079 50.19416294 -0.10727208 52.1875 -0.09765625 C53.31984573 -0.09828568 54.45219147 -0.0989151 55.61885071 -0.0995636 C60.26399917 0.4489756 63.65227816 1.91198184 66.6628418 5.5246582 C68.11802057 9.08176186 68.25672862 11.45657979 67.7878418 15.2746582 C66.08880245 18.6098095 64.91153308 20.6988904 61.54576111 22.42347717 C58.36089219 23.40642834 55.68179546 23.54954547 52.34863281 23.58105469 C51.06702774 23.59704208 49.78542267 23.61302948 48.46498108 23.62950134 C47.07390747 23.63587778 45.68282905 23.6412706 44.29174805 23.64575195 C42.85595103 23.65472587 41.42015492 23.66384785 39.98435974 23.67311096 C36.97929619 23.68956991 33.97434366 23.69729566 30.96923828 23.70019531 C27.12784747 23.70558281 23.28750637 23.74328929 19.44641209 23.78893948 C16.48231738 23.81874903 13.51847464 23.82591965 10.55424309 23.82692146 C9.13848997 23.83111441 7.72273546 23.84351173 6.30713081 23.86443901 C-6.12822512 24.03368093 -6.12822512 24.03368093 -10.06396484 20.92724609 C-13.1183986 17.15563309 -13.55437395 14.09388593 -13.5012207 9.2746582 C-13.04342342 6.10719594 -11.45690698 4.4552713 -9.2121582 2.2746582 C-5.67820551 -0.08131026 -4.18765358 0.0170751 0 0 Z " fill="#E8E2D4" transform="translate(987.212158203125,997.725341796875)"/>
<path d="M0 0 C0.7239798 0.0028299 1.44795959 0.00565979 2.19387817 0.00857544 C4.4861974 0.01969163 6.77811313 0.04477938 9.0703125 0.0703125 C10.63280682 0.0803534 12.19530732 0.08947731 13.7578125 0.09765625 C17.57046588 0.11960277 21.38282098 0.15407237 25.1953125 0.1953125 C25.28287555 3.90349547 25.33589265 7.61141013 25.3828125 11.3203125 C25.40794922 12.36703125 25.43308594 13.41375 25.45898438 14.4921875 C25.51266182 20.14621165 25.47570104 24.34673822 22.1953125 29.1953125 C14.27618038 36.84137109 0.81834774 35.33011989 -9.3046875 35.2578125 C-11.11066406 35.25104492 -11.11066406 35.25104492 -12.953125 35.24414062 C-15.90369823 35.232432 -18.85416609 35.21603245 -21.8046875 35.1953125 C-21.89225055 31.48712953 -21.94526765 27.77921487 -21.9921875 24.0703125 C-22.01732422 23.02359375 -22.04246094 21.976875 -22.06835938 20.8984375 C-22.12200031 15.24825894 -22.09665789 11.03088623 -18.8046875 6.1953125 C-13.27935782 0.81931605 -7.47808429 -0.1117336 0 0 Z " fill="#231276" transform="translate(1323.8046875,1220.8046875)"/>
<path d="M0 0 C4.93665233 0.2363291 7.4977485 2.92437277 10.75 6.3125 C11.24371094 6.79912109 11.73742187 7.28574219 12.24609375 7.78710938 C16.9081371 12.53217541 16.9081371 12.53217541 17 16 C16.34 16.66 15.68 17.32 15 18 C10.09930769 17.89843125 7.43281727 15.068976 4.1875 11.75 C3.68541016 11.27175781 3.18332031 10.79351563 2.66601562 10.30078125 C0.34327566 7.96856072 -0.92962531 6.50897253 -1.38671875 3.203125 C-1 1 -1 1 0 0 Z " fill="#DBD4CE" transform="translate(836,805)"/>
<path d="M0 0 C0.9590625 0.37125 0.9590625 0.37125 1.9375 0.75 C2.2675 1.74 2.5975 2.73 2.9375 3.75 C0.96271245 6.70902671 -1.61686853 9.173612 -4.0625 11.75 C-4.60003906 12.37390625 -5.13757813 12.9978125 -5.69140625 13.640625 C-7.1875 15.3125 -7.1875 15.3125 -10.0625 17.75 C-12.9375 17.625 -12.9375 17.625 -15.0625 16.75 C-15.3984375 14.609375 -15.3984375 14.609375 -15.0625 11.75 C-13.31850148 9.61520583 -11.68741457 7.85492076 -9.6875 6 C-9.17960938 5.50628906 -8.67171875 5.01257813 -8.1484375 4.50390625 C-3.0717984 -0.3723392 -3.0717984 -0.3723392 0 0 Z " fill="#DAD3CD" transform="translate(850.0625,779.25)"/>
<path d="M0 0 C0.59167969 0.21527344 1.18335938 0.43054688 1.79296875 0.65234375 C2.1171875 2.79296875 2.1171875 2.79296875 1.79296875 5.65234375 C0.114394 7.80421191 -1.44149858 9.54207386 -3.39453125 11.40234375 C-3.87728516 11.89605469 -4.36003906 12.38976562 -4.85742188 12.8984375 C-7.83055792 15.81171174 -10.02386122 17.31585475 -14.20703125 17.65234375 C-14.86703125 16.33234375 -15.52703125 15.01234375 -16.20703125 13.65234375 C-4.24819191 -0.66918421 -4.24819191 -0.66918421 0 0 Z " fill="#DBD4CE" transform="translate(824.20703125,805.34765625)"/>
<path d="M0 0 C4.92911043 0.39649152 7.49913772 2.86143458 10.8125 6.25 C11.31458984 6.72824219 11.81667969 7.20648437 12.33398438 7.69921875 C14.69983062 10.07472151 15.9406772 11.47681579 16.32421875 14.859375 C16.21722656 15.56578125 16.11023438 16.2721875 16 17 C14.2421875 17.6875 14.2421875 17.6875 12 18 C10.0703125 16.8125 10.0703125 16.8125 8.125 15 C7.43664062 14.35933594 6.74828125 13.71867188 6.0390625 13.05859375 C3.17662657 10.16873985 0.5721538 7.1508884 -2 4 C-1.34 2.68 -0.68 1.36 0 0 Z " fill="#DCD5CE" transform="translate(810,779)"/>
<path d="M0 0 C2.0703125 -0.390625 2.0703125 -0.390625 5 0 C7.57545448 1.80449745 9.69297665 3.99556437 11.875 6.25 C12.48085937 6.83652344 13.08671875 7.42304687 13.7109375 8.02734375 C14.278125 8.60097656 14.8453125 9.17460938 15.4296875 9.765625 C15.94772949 10.28930664 16.46577148 10.81298828 16.99951172 11.35253906 C18 13 18 13 17.66064453 15.20214844 C17.44263184 15.79543945 17.22461914 16.38873047 17 17 C15.20214844 17.66064453 15.20214844 17.66064453 13 18 C11.35253906 16.99951172 11.35253906 16.99951172 9.765625 15.4296875 C9.19199219 14.8625 8.61835937 14.2953125 8.02734375 13.7109375 C7.44082031 13.10507812 6.85429688 12.49921875 6.25 11.875 C5.64800781 11.29234375 5.04601563 10.7096875 4.42578125 10.109375 C0.09761871 5.73214032 0.09761871 5.73214032 -0.390625 2.0703125 C-0.26171875 1.38710938 -0.1328125 0.70390625 0 0 Z " fill="#E3DCD1" transform="translate(1174,877)"/>
<path d="M0 0 C0.59329102 0.2180127 1.18658203 0.43602539 1.79785156 0.66064453 C2.45849609 2.45849609 2.45849609 2.45849609 2.79785156 4.66064453 C1.79736328 6.30810547 1.79736328 6.30810547 0.22753906 7.89501953 C-0.33964844 8.46865234 -0.90683594 9.04228516 -1.49121094 9.63330078 C-2.09707031 10.21982422 -2.70292969 10.80634766 -3.32714844 11.41064453 C-3.90980469 12.01263672 -4.49246094 12.61462891 -5.09277344 13.23486328 C-9.47000812 17.56302582 -9.47000812 17.56302582 -13.13183594 18.05126953 C-13.81503906 17.92236328 -14.49824219 17.79345703 -15.20214844 17.66064453 C-15.59277344 15.59033203 -15.59277344 15.59033203 -15.20214844 12.66064453 C-13.39765099 10.08519005 -11.20658406 7.96766788 -8.95214844 5.78564453 C-8.365625 5.17978516 -7.77910156 4.57392578 -7.17480469 3.94970703 C-6.60117188 3.38251953 -6.02753906 2.81533203 -5.43652344 2.23095703 C-4.65100098 1.45389404 -4.65100098 1.45389404 -3.84960938 0.66113281 C-2.20214844 -0.33935547 -2.20214844 -0.33935547 0 0 Z " fill="#E4DDD2" transform="translate(1189.2021484375,850.33935546875)"/>
<path d="M0 0 C4.57554502 0.67953639 7.11015268 3.59512949 10.25 6.75 C11.08144531 7.53890625 11.08144531 7.53890625 11.9296875 8.34375 C14.42100087 10.82279089 15.91775337 12.33845106 16.359375 15.890625 C16.24078125 16.58671875 16.1221875 17.2828125 16 18 C13.9296875 18.390625 13.9296875 18.390625 11 18 C8.42454552 16.19550255 6.30702335 14.00443563 4.125 11.75 C3.51914063 11.16347656 2.91328125 10.57695313 2.2890625 9.97265625 C1.721875 9.39902344 1.1546875 8.82539062 0.5703125 8.234375 C0.05227051 7.71069336 -0.46577148 7.18701172 -0.99951172 6.64746094 C-2 5 -2 5 -1.72314453 2.86035156 C-1 1 -1 1 0 0 Z " fill="#E3DDD1" transform="translate(1149,850)"/>
<path d="M0 0 C4.57554502 0.67953639 7.11015268 3.59512949 10.25 6.75 C11.08144531 7.53890625 11.08144531 7.53890625 11.9296875 8.34375 C14.42100087 10.82279089 15.91775337 12.33845106 16.359375 15.890625 C16.24078125 16.58671875 16.1221875 17.2828125 16 18 C13.9296875 18.390625 13.9296875 18.390625 11 18 C8.42454552 16.19550255 6.30702335 14.00443563 4.125 11.75 C3.51914062 11.16347656 2.91328125 10.57695313 2.2890625 9.97265625 C1.721875 9.39902344 1.1546875 8.82539062 0.5703125 8.234375 C0.05227051 7.71069336 -0.46577148 7.18701172 -0.99951172 6.64746094 C-2 5 -2 5 -1.72314453 2.86035156 C-1 1 -1 1 0 0 Z " fill="#E3DCD1" transform="translate(866,641)"/>
<path d="M0 0 C0.68320313 0.12890625 1.36640625 0.2578125 2.0703125 0.390625 C2.4609375 2.4609375 2.4609375 2.4609375 2.0703125 5.390625 C0.26581505 7.96607948 -1.92525187 10.08360165 -4.1796875 12.265625 C-5.05947266 13.17441406 -5.05947266 13.17441406 -5.95703125 14.1015625 C-6.81748047 14.95234375 -6.81748047 14.95234375 -7.6953125 15.8203125 C-8.21899414 16.33835449 -8.74267578 16.85639648 -9.28222656 17.39013672 C-10.9296875 18.390625 -10.9296875 18.390625 -13.13183594 18.05126953 C-13.72512695 17.83325684 -14.31841797 17.61524414 -14.9296875 17.390625 C-15.59033203 15.59277344 -15.59033203 15.59277344 -15.9296875 13.390625 C-14.92919922 11.74316406 -14.92919922 11.74316406 -13.359375 10.15625 C-12.50859375 9.29580078 -12.50859375 9.29580078 -11.640625 8.41796875 C-11.03476563 7.83144531 -10.42890625 7.24492188 -9.8046875 6.640625 C-9.22203125 6.03863281 -8.639375 5.43664062 -8.0390625 4.81640625 C-3.66182782 0.48824371 -3.66182782 0.48824371 0 0 Z " fill="#E3DDD2" transform="translate(1175.9296875,615.609375)"/>
<path d="M0 0 C2.10546875 -0.35546875 2.10546875 -0.35546875 5 0 C7.33605565 1.83777527 9.26942113 3.56994681 11.3125 5.6875 C12.13717773 6.48317383 12.13717773 6.48317383 12.97851562 7.29492188 C15.44406502 9.79109921 16.92041906 11.35198376 17.35546875 14.89453125 C17.23816406 15.58933594 17.12085938 16.28414062 17 17 C15.21801758 17.67651367 15.21801758 17.67651367 13 18 C11.24487305 16.8918457 11.24487305 16.8918457 9.51171875 15.17578125 C8.88845703 14.55896484 8.26519531 13.94214844 7.62304688 13.30664062 C6.98431641 12.64857422 6.34558594 11.99050781 5.6875 11.3125 C5.02943359 10.67376953 4.37136719 10.03503906 3.69335938 9.37695312 C3.07654297 8.75369141 2.45972656 8.13042969 1.82421875 7.48828125 C1.25791748 6.91634033 0.69161621 6.34439941 0.1081543 5.75512695 C-1 4 -1 4 -0.67651367 1.78198242 C-0.3416394 0.89990112 -0.3416394 0.89990112 0 0 Z " fill="#E3DCD1" transform="translate(1135,616)"/>
<path d="M0 0 C0.5880542 0.22324951 1.1761084 0.44649902 1.78198242 0.67651367 C2.13745117 2.78198242 2.13745117 2.78198242 1.78198242 5.67651367 C-0.05579285 8.01256932 -1.78796438 9.9459348 -3.90551758 11.98901367 C-4.70119141 12.81369141 -4.70119141 12.81369141 -5.51293945 13.6550293 C-8.00911679 16.12057869 -9.57000133 17.59693273 -13.11254883 18.03198242 C-13.80735352 17.91467773 -14.5021582 17.79737305 -15.21801758 17.67651367 C-15.89453125 15.89453125 -15.89453125 15.89453125 -16.21801758 13.67651367 C-15.10986328 11.92138672 -15.10986328 11.92138672 -13.39379883 10.18823242 C-12.77698242 9.5649707 -12.16016602 8.94170898 -11.5246582 8.29956055 C-10.8665918 7.66083008 -10.20852539 7.02209961 -9.53051758 6.36401367 C-8.89178711 5.70594727 -8.25305664 5.04788086 -7.5949707 4.36987305 C-6.97170898 3.75305664 -6.34844727 3.13624023 -5.70629883 2.50073242 C-5.13435791 1.93443115 -4.56241699 1.36812988 -3.97314453 0.78466797 C-2.21801758 -0.32348633 -2.21801758 -0.32348633 0 0 Z " fill="#E2DCD1" transform="translate(880.218017578125,615.323486328125)"/>
<path d="M0 0 C2.10546875 -0.35546875 2.10546875 -0.35546875 5 0 C7.33605565 1.83777527 9.26942113 3.56994681 11.3125 5.6875 C12.13717773 6.48317383 12.13717773 6.48317383 12.97851562 7.29492188 C15.44406502 9.79109921 16.92041906 11.35198376 17.35546875 14.89453125 C17.23816406 15.58933594 17.12085938 16.28414062 17 17 C15.21801758 17.67651367 15.21801758 17.67651367 13 18 C11.24487305 16.8918457 11.24487305 16.8918457 9.51171875 15.17578125 C8.88845703 14.55896484 8.26519531 13.94214844 7.62304688 13.30664062 C6.98431641 12.64857422 6.34558594 11.99050781 5.6875 11.3125 C5.02943359 10.67376953 4.37136719 10.03503906 3.69335938 9.37695312 C3.07654297 8.75369141 2.45972656 8.13042969 1.82421875 7.48828125 C1.25791748 6.91634033 0.69161621 6.34439941 0.1081543 5.75512695 C-1 4 -1 4 -0.67651367 1.78198242 C-0.3416394 0.89990112 -0.3416394 0.89990112 0 0 Z " fill="#E4DDD2" transform="translate(1161,642)"/>
<path d="M0 0 C0.68320313 0.29261719 1.36640625 0.58523438 2.0703125 0.88671875 C1.72504569 6.19396283 -1.13697606 8.72886693 -4.7421875 12.26171875 C-5.27650391 12.81988281 -5.81082031 13.37804687 -6.36132812 13.953125 C-7.94921875 15.53515625 -7.94921875 15.53515625 -10.9296875 17.88671875 C-13.1159668 17.53369141 -13.1159668 17.53369141 -14.9296875 16.88671875 C-15.59033203 15.09106445 -15.59033203 15.09106445 -15.9296875 12.88671875 C-14.33888592 10.24198201 -12.00695514 8.22260112 -9.8046875 6.07421875 C-8.93070313 5.15866211 -8.93070313 5.15866211 -8.0390625 4.22460938 C-3.64875847 -0.14108533 -3.64875847 -0.14108533 0 0 Z " fill="#E5DED2" transform="translate(1149.9296875,642.11328125)"/>
<path d="M0 0 C4.58263021 0.68138756 7.15313158 3.60187489 10.3125 6.75 C11.15651367 7.53890625 11.15651367 7.53890625 12.01757812 8.34375 C13.61328125 9.921875 13.61328125 9.921875 16 13 C15.85546875 15.890625 15.85546875 15.890625 15 18 C9.69275592 17.65473319 7.15785182 14.79271144 3.625 11.1875 C3.06683594 10.65318359 2.50867188 10.11886719 1.93359375 9.56835938 C0.3515625 7.98046875 0.3515625 7.98046875 -2 5 C-1.71160868 2.89183521 -1.52455106 1.52455106 0 0 Z " fill="#E5DED2" transform="translate(840,615)"/>
<path d="M0 0 C1.32 0.66 2.64 1.32 4 2 C3.60350848 6.92911043 1.13856542 9.49913772 -2.25 12.8125 C-2.72824219 13.31458984 -3.20648437 13.81667969 -3.69921875 14.33398438 C-6.07472151 16.69983062 -7.47681579 17.9406772 -10.859375 18.32421875 C-11.56578125 18.21722656 -12.2721875 18.11023438 -13 18 C-13.68530273 16.21582031 -13.68530273 16.21582031 -14 14 C-12.82836914 12.26074219 -12.82836914 12.26074219 -11.03515625 10.546875 C-10.40029297 9.928125 -9.76542969 9.309375 -9.11132812 8.671875 C-8.43521484 8.03765625 -7.75910156 7.4034375 -7.0625 6.75 C-6.05413086 5.77546875 -6.05413086 5.77546875 -5.02539062 4.78125 C-3.36087407 3.17575886 -1.68584572 1.58303096 0 0 Z " fill="#E2DBD1" transform="translate(852,641)"/>
<path d="M0 0 C0.68320313 0.29261719 1.36640625 0.58523438 2.0703125 0.88671875 C1.67382098 5.81582918 -0.79112208 8.38585647 -4.1796875 11.69921875 C-4.65792969 12.20130859 -5.13617187 12.70339844 -5.62890625 13.22070312 C-8.00440901 15.58654937 -9.40650329 16.82739595 -12.7890625 17.2109375 C-13.49546875 17.10394531 -14.201875 16.99695313 -14.9296875 16.88671875 C-15.59033203 15.09106445 -15.59033203 15.09106445 -15.9296875 12.88671875 C-14.33888592 10.24198201 -12.00695514 8.22260112 -9.8046875 6.07421875 C-8.93070313 5.15866211 -8.93070313 5.15866211 -8.0390625 4.22460938 C-3.64875847 -0.14108533 -3.64875847 -0.14108533 0 0 Z " fill="#E6DFD3" transform="translate(1162.9296875,877.11328125)"/>
</svg>
